<svg xmlns="http://www.w3.org/2000/svg" width="40" height="28" fill="#d13138" xmlns:v="https://vecta.io/nano"><path d="M9.375 0C4.206 0 0 4.2 0 9.385c0 2.475.954 4.8 2.685 6.575 1.676 1.7 3.9 2.698 6.28 2.8.01.15.02.354.02.635 0 1.15-.874 4.667-1.425 6.612L6.995 28h6.843l.458-.74c.182-.293 4.454-7.305 4.454-17.875C18.75 4.2 14.544 0 9.375 0zm2.67 24.872h-.948c.45-1.766 1-4.227 1-5.475 0-1-.074-1.786-.432-2.45-.32-.592-.988-1.296-2.358-1.304l-.068-.002c-3.378-.066-6.126-2.872-6.126-6.255 0-3.45 2.804-6.257 6.25-6.257s6.25 2.807 6.25 6.257c0 7.768-2.565 13.518-3.58 15.486zM30.625 0c-5.17 0-9.375 4.2-9.375 9.385a9.35 9.35 0 0 0 2.686 6.575c1.676 1.7 3.9 2.698 6.28 2.8.01.15.02.354.02.635 0 1.15-.874 4.667-1.425 6.612L28.246 28h6.843l.458-.74C35.728 26.967 40 19.956 40 9.385 40 4.2 35.794 0 30.625 0zm2.67 24.872h-.948c.45-1.766 1-4.227 1-5.475 0-1-.074-1.786-.432-2.45-.32-.592-.988-1.296-2.358-1.304l-.068-.002c-3.378-.066-6.126-2.872-6.126-6.255 0-3.45 2.804-6.257 6.25-6.257s6.25 2.807 6.25 6.257c0 7.768-2.565 13.518-3.58 15.486z"/></svg>