<svg xmlns="http://www.w3.org/2000/svg" width="40" height="28" fill="#d13138" xmlns:v="https://vecta.io/nano"><path d="M30.625 28C35.794 28 40 23.8 40 18.615c0-2.475-.954-4.8-2.685-6.575-1.676-1.7-3.9-2.698-6.28-2.8-.01-.15-.02-.354-.02-.635 0-1.15.874-4.667 1.425-6.612L33.005 0h-6.843l-.458.74c-.182.293-4.454 7.305-4.454 17.875C21.25 23.8 25.456 28 30.625 28zm-2.67-24.872h.948c-.45 1.766-1 4.227-1 5.475 0 1 .073 1.786.432 2.45.32.592.988 1.296 2.358 1.304l.068.002c3.378.066 6.126 2.872 6.126 6.255 0 3.45-2.804 6.257-6.25 6.257s-6.25-2.807-6.25-6.257c0-7.768 2.565-13.518 3.58-15.486zM9.375 28c5.17 0 9.375-4.2 9.375-9.385a9.35 9.35 0 0 0-2.686-6.575c-1.676-1.7-3.9-2.698-6.28-2.8-.01-.15-.02-.354-.02-.635 0-1.15.874-4.667 1.425-6.612L11.755 0H4.912l-.458.74C4.272 1.033 0 8.044 0 18.615 0 23.8 4.206 28 9.375 28zM6.704 3.128h.948c-.45 1.766-1 4.227-1 5.475 0 1 .073 1.786.432 2.45.32.592.988 1.296 2.358 1.304l.068.002c3.378.066 6.126 2.872 6.126 6.255 0 3.45-2.804 6.257-6.25 6.257s-6.25-2.807-6.25-6.257c0-7.768 2.565-13.518 3.58-15.486z"/></svg>