<svg width="64" height="60" viewBox="0 0 64 60" fill="none" xmlns="http://www.w3.org/2000/svg">
<path d="M32.0051 44.2228C31.6894 44.0666 31.4526 43.9104 31.2158 43.9104C30.5844 43.9104 30.0319 44.4571 30.0319 44.4571L29.953 44.5352C29.953 44.5352 29.1637 45.2381 28.1376 46.8781C27.3483 48.1277 27.3483 49.0649 28.2166 49.7678C28.5323 50.0021 28.848 50.1583 29.0848 50.1583C29.7162 50.1583 30.3476 49.4554 30.5844 49.2992C32.6366 47.1124 32.8734 45.941 32.7944 45.3943C32.7155 45.0819 32.6366 44.6133 32.0051 44.2228Z" stroke="white" stroke-width="2" stroke-miterlimit="10" stroke-linecap="round" stroke-linejoin="round"/>
<path d="M29.874 42.0362C29.874 41.4895 29.5583 40.9428 29.0058 40.4742C28.6112 40.1618 28.2955 40.0056 27.9008 40.0056C27.1115 40.0056 26.4801 40.6304 26.4801 40.6304L26.4012 40.7085C26.4012 40.7085 25.454 41.4895 24.1122 43.2077C23.7176 43.7543 22.4547 45.6287 23.9544 46.7221C24.9805 47.5031 25.9276 47.425 27.0326 46.4097C29.4005 44.2229 29.874 42.8172 29.874 42.0362Z" stroke="white" stroke-width="2" stroke-miterlimit="10" stroke-linecap="round" stroke-linejoin="round"/>
<path d="M26.6381 37.7406C26.5592 37.1158 26.2435 36.6472 25.5331 36.1786C25.0596 35.8662 24.6649 35.7881 24.1913 35.7881C22.9285 35.7881 21.7445 36.7253 21.7445 36.7253L21.6656 36.8034C21.6656 36.8034 20.4028 37.6625 18.7453 39.6149C17.956 40.5521 16.851 42.3484 18.5874 43.676C19.061 43.9884 19.5345 44.2227 20.087 44.2227C21.1131 44.2227 22.0603 43.5979 22.5338 43.2855C26.2435 40.3178 26.7171 38.5215 26.6381 37.7406Z" stroke="white" stroke-width="2" stroke-miterlimit="10" stroke-linecap="round" stroke-linejoin="round"/>
<path d="M7.92099 10L2 30.7448L8.38073 32.5278L14.3017 11.7831L7.92099 10Z" stroke="white" stroke-width="2" stroke-miterlimit="10" stroke-linecap="round" stroke-linejoin="round"/>
<path d="M20.6395 34.5385C20.6395 33.9918 20.3238 33.6013 19.7713 33.2108C19.3766 32.8984 18.982 32.7422 18.5084 32.7422C17.7191 32.7422 17.0877 33.2889 17.0877 33.2889L17.0088 33.367C17.0088 33.367 15.9827 34.148 14.6409 35.9442C14.0095 36.8033 13.1412 38.3653 14.483 39.5368C14.8777 39.8492 15.2723 40.0054 15.667 40.0054C16.3773 40.0054 17.0877 39.5368 17.5613 39.1463C20.4027 36.7252 20.7184 35.2413 20.6395 34.5385Z" stroke="white" stroke-width="2" stroke-miterlimit="10" stroke-linecap="round" stroke-linejoin="round"/>
<path d="M56.3949 10.0036L49.9883 11.6915L55.5934 32.5203L62 30.8324L56.3949 10.0036Z" stroke="white" stroke-width="2" stroke-miterlimit="10" stroke-linecap="round" stroke-linejoin="round"/>
<path d="M47.7119 14.1548C44.6337 14.1548 41.003 13.3738 37.5301 12.6709C34.2151 11.9681 31.058 11.3433 28.5323 11.3433C26.9537 11.3433 25.7697 11.5776 24.9015 12.1242C21.8233 14.0767 16.4562 21.3399 17.6401 23.2142C17.719 23.3704 18.0347 23.839 19.1397 23.839C20.6394 23.839 22.6126 22.8238 23.5597 22.1209C23.7176 21.9647 23.9544 21.8085 24.1912 21.6523C25.6908 20.4808 28.2165 18.4502 30.6633 18.4502C31.6105 18.4502 32.4787 18.7626 33.189 19.3093L51.0269 33.9918C52.2898 33.0547 54.263 32.0394 55.2891 31.5708L50.5534 13.9205C49.6851 14.0767 48.8169 14.1548 47.7119 14.1548Z" stroke="white" stroke-width="2" stroke-miterlimit="10" stroke-linecap="round" stroke-linejoin="round"/>
<path d="M30.979 39.1465L38.1615 46.2535C38.1615 46.2535 40.4504 48.5183 42.108 46.8001C42.9762 45.9411 44.4758 44.1448 42.9762 42.5828" stroke="white" stroke-width="2" stroke-miterlimit="10" stroke-linecap="round" stroke-linejoin="round"/>
<path d="M35.2412 34.9292L42.9762 42.5829C42.9762 42.5829 45.5019 45.082 47.2384 43.3638C48.9748 41.6457 49.2116 40.1618 47.7909 38.8341" stroke="white" stroke-width="2" stroke-miterlimit="10" stroke-linecap="round" stroke-linejoin="round"/>
<path d="M23.2441 12.8271C20.9552 13.2957 16.5352 13.3738 14.0094 12.9833C13.378 15.092 11.4837 21.8866 8.95801 30.7117C10.4577 31.0241 13.378 31.8051 14.6409 34.1481" stroke="white" stroke-width="2" stroke-miterlimit="10" stroke-linecap="round" stroke-linejoin="round"/>
<path d="M40.3716 31.5708L47.3962 38.5216C47.3962 38.5216 49.843 40.9426 51.5795 39.2245C53.3159 37.5063 52.4477 35.8662 49.843 33.289" stroke="white" stroke-width="2" stroke-miterlimit="10" stroke-linecap="round" stroke-linejoin="round"/>
<path d="M31.5315 47.9715L33.5047 50.2364C33.5047 50.2364 35.2411 51.9545 36.8986 50.2364C38.5561 48.5182 39.5033 47.6591 37.7669 46.019" stroke="white" stroke-width="2" stroke-miterlimit="10" stroke-linecap="round" stroke-linejoin="round"/>
</svg>
