<svg xmlns="http://www.w3.org/2000/svg" width="60" height="53" fill="#464646" xmlns:v="https://vecta.io/nano"><path d="M50.947 53H9.068C4.03 53 .015 48.96.015 43.9V16.32c0-5.07 4.015-9.1 9.053-9.1h41.88c4.96 0 9.053 4.04 9.053 9.1v27.65c-.08 5-4.093 9.03-9.053 9.03zM9.068 8.794C4.975 8.794 1.6 12.2 1.6 16.32v27.65c0 4.12 3.385 7.526 7.478 7.526h41.88c4.093 0 7.478-3.407 7.478-7.526V16.32c0-4.12-3.385-7.526-7.478-7.526H9.068zM33.55 34.462h-7.085c-.472 0-.787-.317-.787-.792v-7.13c0-.475.315-.792.787-.792h7.085c.472 0 .787.317.787.792v7.13c0 .475-.394.792-.787.792zm-6.298-1.584h5.5v-5.546h-5.5v5.546z"/><path d="M25.993 30.026H8.202c-5.983 0-8.108-7.605-8.187-7.922-.08-.396.157-.87.55-.95s.866.16.945.555c0 .08 1.9 6.813 6.613 6.813h17.87c.472 0 .787.317.787.792 0 .317-.394.713-.787.713zm25.74 0H34.022c-.472 0-.787-.317-.787-.792s.315-.792.787-.792h17.712c4.723 0 6.612-6.734 6.612-6.813.08-.396.55-.634.945-.555s.63.555.55.95c0 .317-2.125 8.002-8.108 8.002zM40.084 8.794H19.93c-.472 0-.787-.317-.787-.792V4.595C19.144 2.06 21.2 0 23.7 0h12.595c2.52 0 4.566 2.06 4.566 4.595v3.407c0 .396-.394.792-.787.792zM20.72 7.2h18.578V4.595a3 3 0 0 0-2.991-3.01H23.7a3 3 0 0 0-2.991 3.01V7.2z"/></svg>