<svg xmlns="http://www.w3.org/2000/svg" width="60" height="40" fill="#464646" xmlns:v="https://vecta.io/nano"><path d="M22.8 18.753a.7.7 0 0 1-.54-.231l-5.478-5.466a.74.74 0 0 1 0-1.078c.3-.308.772-.308 1.08 0l5.478 5.466a.74.74 0 0 1 0 1.078c-.154.154-.386.23-.54.23zm3.935-3.387a.7.7 0 0 1-.54-.231l-5.48-5.465a.74.74 0 0 1 0-1.078c.3-.308.772-.308 1.08 0l5.478 5.466a.74.74 0 0 1 0 1.078c-.154.154-.386.23-.54.23zm4.09-3.08a.7.7 0 0 1-.54-.231L24.816 6.6a.74.74 0 0 1 0-1.078c.3-.308.772-.308 1.08 0l5.478 5.466a.74.74 0 0 1 0 1.078c-.077.154-.3.23-.54.23zM24.816 39.46h-.23L11.4 37.7c-.3-.077-.54-.23-.617-.54l-4.95-15.636c-.154-.385.077-.77.463-.924l8.873-3.3c.3-.077.617 0 .85.154l13.04 12.933 8.333-3.08c.386-.077.694-.154 1.003-.154 2.006 0 3.55 1.617 3.55 3.54 0 1.386-.772 2.617-2.006 3.156l-.154.077h-.077L26.282 39.23h-.077a4.38 4.38 0 0 1-1.39.23zm-.077-1.54h.077c.3 0 .54-.077.85-.154l13.657-5.312c.694-.308 1.08-1 1.08-1.77a1.99 1.99 0 0 0-2.006-2.001c-.154 0-.386 0-.54.077l-.154.077-8.565 3.156c-.3.077-.617 0-.85-.154l-13.04-13-7.716 2.925 4.552 14.473 12.654 1.694z"/><path d="M6.452 40c-.154 0-.23 0-.386-.077a.79.79 0 0 1-.386-.462L.048 21.602c-.154-.385.077-.847.54-1l5.324-1.617a.6.6 0 0 1 .617.077.79.79 0 0 1 .386.462l5.633 17.86c.154.385-.077.847-.54 1L6.683 40h-.23zm-4.63-18.1l5.17 16.397 3.858-1.232-5.247-16.397-3.78 1.232zm55.092 16.483h-.077L51.36 37.7c-.386-.077-.694-.462-.694-.847L52.98 18.3c0-.23.154-.385.3-.54s.386-.154.54-.154l5.478.693c.386.077.694.462.694.847L57.685 37.7c0 .23-.154.385-.3.54-.154.077-.3.154-.463.154zm-4.63-2.156l3.935.462 2.16-17.013-3.935-.462-2.16 17.013z"/><path d="M51.512 36.7c-6.867-.154-12.114-2.617-12.268-2.77-.232-.154-.463-.385-.463-.693s.154-.54.463-.693c.694-.308 1.235-1.078 1.235-1.848a1.99 1.99 0 0 0-2.006-2.001c-.154 0-.386 0-.54.077l-.232.077-8.565 3.156c-.31.077-.617 0-.85-.154L12.856 16.52c-1.235-1.386-1.157-3.54.232-4.773.772-.693 1.775-.924 2.7-.847v-.154c0-1.848 1.543-3.387 3.395-3.387.232 0 .463 0 .695.077.077-1.848 1.543-3.233 3.395-3.233.386 0 .694.077 1.003.154.154-1.694 1.62-3.002 3.318-3.002a3.39 3.39 0 0 1 2.392 1.001v.077l4.012 4.003a.74.74 0 0 1 0 1.078c-.31.308-.772.308-1.08 0L28.75 3.357c-.31-.308-.772-.54-1.235-.54a1.88 1.88 0 0 0-1.852 1.848c0 .308.077.616.232.924.23.308.077.77-.232 1-.154.308-.695.23-.926-.154-.31-.462-.926-.77-1.466-.77a1.88 1.88 0 0 0-1.852 1.848c0 .385.154.77.386 1.078a.72.72 0 0 1-.077 1.001c-.232.308-.694.308-1.003.077-.077-.077-.154-.077-.154-.154-.386-.462-.85-.693-1.39-.693a1.88 1.88 0 0 0-1.852 1.848c0 .462.154.847.463 1.155l.077.077c.154.154.232.385.154.616 0 .23-.154.385-.31.54-.31.23-.772.23-1.003-.077l-.077-.077a1.8 1.8 0 0 0-2.469-.077c-.772.693-.85 1.848-.154 2.54L29.06 30.3l8.4-3.08c.31-.077.694-.154 1.003-.154 2.006 0 3.55 1.617 3.55 3.54 0 .847-.31 1.694-.926 2.386a32.59 32.59 0 0 0 9.722 2.078l1.775-13.934c-.694-.308-1.93-.847-3.472-1.694-.386-.23-.54-.693-.31-1 .232-.385.694-.54 1.003-.308 2.315 1.232 3.858 1.848 3.935 1.848.31.154.54.462.463.847l-1.93 15.242a.75.75 0 0 1-.772.616z"/><path d="M36.08 10.44c-.85 0-1.698-.308-2.315-1-1.312-1.31-1.312-3.387 0-4.62L36.698 1.2c1.157-1.386 3.24-1.617 4.63-.462s1.62 3.233.463 4.62L38.473 9.36c-.694.77-1.466 1.078-2.392 1.078zm1.775-8.237L34.923 5.82s0 .077-.077.077c-.694.693-.694 1.77 0 2.463s1.852.693 2.47 0l3.24-3.926c.617-.77.54-1.848-.23-2.463s-1.852-.462-2.47.23z"/><path d="M39.862 13.826c-.85 0-1.697-.308-2.315-1-1.312-1.31-1.312-3.387 0-4.62L40.48 4.59c1.157-1.386 3.24-1.617 4.63-.385 1.39 1.155 1.62 3.233.386 4.62l-3.318 4.003c-.617.693-1.466 1-2.315 1zm1.775-8.237l-3.01 3.618s0 .077-.077.077c-.694.693-.694 1.77 0 2.463s1.775.693 2.47 0l3.24-3.926c.617-.77.54-1.848-.23-2.463-.617-.616-1.775-.462-2.392.23z"/><path d="M43.72 17.137c-.85 0-1.697-.308-2.315-.924-1.312-1.31-1.312-3.387 0-4.62l2.932-3.618c1.157-1.386 3.24-1.617 4.63-.462s1.62 3.233.463 4.62l-3.318 4.003c-.695.693-1.543 1-2.392 1zM45.494 8.9l-3.01 3.618s0 .077-.077.077c-.694.693-.694 1.77 0 2.464s1.775.693 2.47 0l3.24-3.926c.617-.77.54-1.848-.23-2.463-.694-.616-1.775-.54-2.392.23z"/><path d="M47.577 20.37c-.85 0-1.697-.308-2.315-.924-1.312-1.31-1.312-3.387 0-4.62l2.932-3.618c1.157-1.386 3.24-1.617 4.63-.462s1.62 3.233.463 4.62L49.97 19.37c-.617.693-1.543 1-2.392 1zm1.775-8.237L46.42 15.75s0 .077-.077.077c-.694.693-.694 1.77 0 2.464s1.775.693 2.47 0l3.24-3.926c.617-.77.54-1.848-.23-2.463-.694-.616-1.775-.54-2.47.23z"/></svg>