<svg xmlns="http://www.w3.org/2000/svg" width="60" height="50" fill="#464646" xmlns:v="https://vecta.io/nano"><path d="M15.48 42.786H8.426c-.47 0-.784-.314-.784-.784V24.83c0-.47.314-.784.784-.784h7.054c.47 0 .784.314.784.784v17.173c0 .47-.392.784-.784.784zM9.2 41.218h5.487V25.613H9.2v15.605zm18.194 1.568H20.34c-.47 0-.784-.314-.784-.784V20.595c0-.47.313-.784.784-.784h7.054c.47 0 .784.314.784.784V42.08c0 .392-.314.706-.784.706zm-6.192-1.568h5.487V21.38h-5.487v19.84zm18.184 1.568h-7.054c-.47 0-.784-.314-.784-.784V16.595c0-.47.313-.784.784-.784h7.054c.47 0 .784.314.784.784V42c0 .47-.313.784-.784.784zm-6.192-1.568h5.487V17.38h-5.487v23.838zm18.184 1.568h-7.054c-.47 0-.784-.314-.784-.784V11.97c0-.47.313-.784.784-.784h7.054c.47 0 .784.314.784.784v30.1c0 .392-.314.706-.784.706zm-6.27-1.568h5.487V12.753h-5.487v28.465zm9.797 6.038H3.566c-.47 0-.784-.314-.784-.784V5.696H4.35v39.992h50.477l.078 1.568zm-9.327-42.11c-15.206 9.4-35.193 13.487-35.35 13.487h-.157c-.392 0-.705-.235-.784-.627s.157-.863.627-.94c.235-.078 19.987-4.078 34.958-13.4l.705 1.5z"/><path d="M.118 5.54c-.157-.235-.157-.55 0-.784L2.86.363c.314-.47 1.097-.47 1.41-.078l2.743 4.39c.157.235.157.55 0 .784-.157.314-.392.47-.705.47H.823c-.314 0-.55-.157-.705-.392z"/><path d="M2.234 4.36H4.9L3.566 2.244 2.234 4.36zM60 47.1l-4.4 2.745c-.157.078-.235.157-.392.157s-.235 0-.392-.078c-.235-.157-.392-.392-.392-.706v-5.5c0-.314.157-.55.392-.706a.71.71 0 0 1 .784 0l4.4 2.744"/><path d="M55.924 45.138v2.666l2.116-1.333-2.116-1.333zM46.832 7.42c-.235 0-.47-.157-.627-.314L43.148 2.48c-.157-.235-.157-.55-.078-.784.157-.235.392-.392.705-.392l5.173-.157c.235 0 .55.157.705.314.157.235.157.55.078.784l-2.116 4.783c-.157.157-.392.392-.784.392h0zm-1.646-4.626l1.5 2.274 1.02-2.352-2.508.078z"/></svg>