<svg width="29" height="48" viewBox="0 0 29 48" fill="none" xmlns="http://www.w3.org/2000/svg">
<path d="M27.9065 22.127L6.69708 0.766823C6.20653 0.272388 5.55169 0 4.85346 0C4.15522 0 3.50038 0.272388 3.00983 0.766823L1.44791 2.33949C0.431549 3.36427 0.431549 5.02981 1.44791 6.05302L19.258 23.99L1.42814 41.947C0.937596 42.4414 0.666748 43.1005 0.666748 43.8034C0.666748 44.507 0.937596 45.1661 1.42814 45.6609L2.99007 47.2332C3.48101 47.7276 4.13546 48 4.8337 48C5.53193 48 6.18677 47.7276 6.67732 47.2332L27.9065 25.8534C28.3982 25.3575 28.6683 24.6952 28.6667 23.9912C28.6683 23.2845 28.3982 22.6226 27.9065 22.127Z" fill="#ACABAB"/>
</svg>
