<svg width="28" height="48" viewBox="0 0 28 48" fill="none" xmlns="http://www.w3.org/2000/svg">
<path d="M0.760241 25.873L21.9697 47.2332C22.4602 47.7276 23.1151 48 23.8133 48C24.5115 48 25.1664 47.7276 25.6569 47.2332L27.2188 45.6605C28.2352 44.6357 28.2352 42.9702 27.2188 41.947L9.40877 24.01L27.2386 6.05302C27.7292 5.55859 28 4.89947 28 4.19665C28 3.49304 27.7292 2.83393 27.2386 2.3391L25.6767 0.766822C25.1857 0.272387 24.5313 2.12111e-08 23.8331 -3.98307e-08C23.1348 -1.00873e-07 22.48 0.272386 21.9894 0.766821L0.760242 22.1465C0.268531 22.6425 -0.0015411 23.3048 8.74889e-06 24.0088C-0.00154123 24.7155 0.268531 25.3774 0.760241 25.873Z" fill="#ACABAB"/>
</svg>
