<svg width="406" height="284" viewBox="0 0 406 284" fill="none" xmlns="http://www.w3.org/2000/svg">
<path d="M193.316 144.707L180.113 118.301H140.697C133.299 118.301 127.301 124.299 127.301 131.697V234.488H289.699V144.707H193.316Z" fill="#F9F7F7"/>
<path d="M188.695 255.943V254.293H228.305V255.943C228.305 262.324 233.477 267.496 239.857 267.496C246.238 267.496 251.41 272.668 251.41 279.049V280.699H165.59V279.049C165.59 272.668 170.762 267.496 177.143 267.496C183.523 267.496 188.695 262.324 188.695 255.943Z" fill="white"/>
<path d="M161.334 198.106C161.334 197.68 161.449 197.255 161.681 196.829L173.415 173.947C173.942 172.835 174.851 172.278 176.138 172.278C176.798 172.278 177.5 172.518 178.242 172.995C178.985 173.474 179.356 174.06 179.356 174.753C179.356 174.984 179.274 175.265 179.109 175.595L169.603 194.607H175.395V189.159C175.395 188.468 175.709 187.94 176.336 187.577C176.963 187.214 177.723 187.032 178.614 187.032C179.505 187.032 180.264 187.214 180.891 187.577C181.518 187.94 181.832 188.468 181.832 189.159V194.607H184.159C184.786 194.607 185.281 194.888 185.644 195.448C186.007 196.008 186.189 196.676 186.189 197.453C186.189 198.168 185.983 198.814 185.57 199.389C185.157 199.965 184.687 200.252 184.159 200.252H181.832V206.351C181.832 207.006 181.518 207.523 180.891 207.902C180.264 208.281 179.505 208.471 178.614 208.471C177.755 208.471 177.005 208.281 176.361 207.902C175.717 207.523 175.395 207.006 175.395 206.351V200.252H163.513C162.885 200.252 162.365 200.057 161.953 199.668C161.54 199.28 161.334 198.759 161.334 198.106Z" fill="#D90000"/>
<path d="M193.764 197.43V183.616C193.764 179.688 194.812 176.816 196.908 175.001C199.004 173.186 201.818 172.278 205.35 172.278C208.882 172.278 211.704 173.186 213.817 175.001C215.928 176.816 216.985 179.688 216.985 183.616V197.43C216.985 201.358 215.929 204.23 213.817 206.045C211.704 207.861 208.882 208.768 205.35 208.768C201.818 208.768 199.004 207.861 196.908 206.045C194.812 204.229 193.764 201.358 193.764 197.43ZM200.201 197.43C200.201 201.226 201.917 203.123 205.35 203.123C208.816 203.123 210.549 201.226 210.549 197.43V183.616C210.549 179.821 208.816 177.922 205.35 177.922C201.917 177.922 200.201 179.821 200.201 183.616V197.43Z" fill="#D90000"/>
<path d="M224.412 198.106C224.412 197.68 224.527 197.255 224.758 196.829L236.493 173.947C237.02 172.835 237.929 172.278 239.216 172.278C239.876 172.278 240.578 172.518 241.32 172.995C242.063 173.474 242.434 174.06 242.434 174.753C242.434 174.984 242.351 175.265 242.187 175.595L232.68 194.607H238.473V189.159C238.473 188.468 238.787 187.94 239.414 187.577C240.041 187.214 240.8 187.032 241.692 187.032C242.583 187.032 243.341 187.214 243.969 187.577C244.595 187.94 244.91 188.468 244.91 189.159V194.607H247.237C247.863 194.607 248.358 194.888 248.722 195.448C249.085 196.008 249.267 196.676 249.267 197.453C249.267 198.168 249.06 198.814 248.648 199.389C248.234 199.965 247.764 200.252 247.237 200.252H244.91V206.351C244.91 207.006 244.596 207.523 243.969 207.902C243.341 208.281 242.583 208.471 241.692 208.471C240.833 208.471 240.083 208.281 239.439 207.902C238.795 207.523 238.473 207.006 238.473 206.351V200.252H226.591C225.963 200.252 225.443 200.057 225.031 199.668C224.618 199.28 224.412 198.759 224.412 198.106Z" fill="#D90000"/>
<path d="M276.362 115H180.113H140.697C131.49 115 124 122.49 124 131.697V241.09C124 250.19 131.404 257.594 140.504 257.594H185.229C184.462 261.356 181.128 264.195 177.143 264.195C168.952 264.195 162.289 270.859 162.289 279.049V280.699C162.289 282.522 163.767 284 165.59 284H251.41C253.233 284 254.711 282.522 254.711 280.699V279.049C254.711 270.859 248.048 264.195 239.857 264.195C235.872 264.195 232.538 261.356 231.771 257.594H276.496C285.596 257.594 293 250.19 293 241.09V131.638C293 122.464 285.536 115 276.362 115ZM130.602 148.008H286.398V231.188H130.602V148.008ZM276.362 121.602C281.896 121.602 286.398 126.104 286.398 131.638V141.406H195.356L185.454 121.602H276.362ZM140.697 121.602H178.073L181.374 128.203H153.707C151.888 128.203 150.406 129.685 150.406 131.504C150.406 133.323 151.888 134.805 153.707 134.805H184.675L187.976 141.406H130.602V131.697C130.602 126.131 135.131 121.602 140.697 121.602ZM227.517 264.195H215.597C213.778 264.195 212.296 265.677 212.296 267.496C212.296 269.315 213.778 270.797 215.597 270.797C215.597 270.797 239.594 270.797 239.857 270.797C243.842 270.797 247.177 273.637 247.944 277.398H169.056C169.823 273.637 173.158 270.797 177.143 270.797C184.775 270.797 191.081 265.01 191.905 257.594H225.095C225.364 260.018 226.222 262.265 227.517 264.195ZM286.398 241.09C286.398 246.55 281.956 250.992 276.496 250.992H228.305H188.695H140.504C135.044 250.992 130.602 246.55 130.602 241.09V237.789H286.398V241.09Z" fill="#464646"/>
<path d="M276.496 134.805C278.318 134.805 279.797 133.326 279.797 131.504C279.797 129.682 278.318 128.203 276.496 128.203C274.674 128.203 273.195 129.682 273.195 131.504C273.195 133.326 274.674 134.805 276.496 134.805Z" fill="#464646"/>
<path d="M263.293 134.805C265.115 134.805 266.594 133.326 266.594 131.504C266.594 129.682 265.115 128.203 263.293 128.203C261.471 128.203 259.992 129.682 259.992 131.504C259.992 133.326 261.471 134.805 263.293 134.805Z" fill="#464646"/>
<path d="M250.09 134.805C251.912 134.805 253.391 133.326 253.391 131.504C253.391 129.682 251.912 128.203 250.09 128.203C248.267 128.203 246.789 129.682 246.789 131.504C246.789 133.326 248.267 134.805 250.09 134.805Z" fill="#464646"/>
<path d="M202.394 270.797C204.212 270.797 205.694 269.315 205.694 267.496C205.694 265.677 204.212 264.195 202.394 264.195C200.575 264.195 199.093 265.677 199.093 267.496C199.093 269.315 200.575 270.797 202.394 270.797Z" fill="#464646"/>
<path d="M140.504 134.805C142.323 134.805 143.805 133.323 143.805 131.504C143.805 129.685 142.323 128.203 140.504 128.203C138.685 128.203 137.203 129.685 137.203 131.504C137.203 133.323 138.685 134.805 140.504 134.805Z" fill="#464646"/>
<rect x="27" y="281" width="364" height="3" rx="1.5" fill="#464646"/>
<path d="M139.28 24.3101H139.79C136.98 16.3201 129.43 10.5801 120.54 10.5801C111.64 10.5801 104.1 16.3201 101.29 24.3101H99.59C93.28 24.3101 88.16 29.4301 88.16 35.7401V38.5101H150.71V35.7401C150.71 29.4301 145.59 24.3101 139.28 24.3101Z" stroke="#464646" stroke-width="2.4232" stroke-miterlimit="10" stroke-linecap="round" stroke-linejoin="round"/>
<path d="M60.41 18.1299C59.94 18.1299 59.55 18.5099 59.55 18.9899V20.9799C59.55 21.4499 59.93 21.8399 60.41 21.8399C60.88 21.8399 61.27 21.4599 61.27 20.9799V18.9899C61.27 18.5099 60.89 18.1299 60.41 18.1299Z" fill="#464646"/>
<path d="M58.16 16.1299H56.17C55.7 16.1299 55.31 16.5099 55.31 16.9899C55.31 17.4599 55.69 17.8499 56.17 17.8499H58.16C58.63 17.8499 59.02 17.4699 59.02 16.9899C59.02 16.5099 58.64 16.1299 58.16 16.1299Z" fill="#464646"/>
<path d="M60.41 12C59.94 12 59.55 12.38 59.55 12.86V14.85C59.55 15.32 59.93 15.71 60.41 15.71C60.88 15.71 61.27 15.33 61.27 14.85V12.86C61.27 12.38 60.89 12 60.41 12Z" fill="#464646"/>
<path d="M64.65 15.99H62.66C62.19 15.99 61.8 16.37 61.8 16.85C61.8 17.32 62.18 17.71 62.66 17.71H64.65C65.12 17.71 65.51 17.33 65.51 16.85C65.51 16.38 65.13 15.99 64.65 15.99Z" fill="#464646"/>
<path d="M186.71 9.04007H206.36C206.83 9.04007 207.22 8.66007 207.22 8.18007C207.22 7.71007 206.84 7.32007 206.36 7.32007H186.71C186.24 7.32007 185.85 7.70007 185.85 8.18007C185.85 8.65007 186.24 9.04007 186.71 9.04007Z" fill="#464646"/>
<path d="M212.61 9.04007H216.45C216.92 9.04007 217.31 8.66007 217.31 8.18007C217.31 7.71007 216.93 7.32007 216.45 7.32007H212.61C212.14 7.32007 211.75 7.70007 211.75 8.18007C211.75 8.66007 212.14 9.04007 212.61 9.04007Z" fill="#464646"/>
<path d="M195.94 2.19008C195.94 1.72008 196.32 1.33008 196.8 1.33008H199.26C199.73 1.33008 200.12 1.71008 200.12 2.19008C200.12 2.66008 199.74 3.05008 199.26 3.05008H196.8C196.33 3.05008 195.94 2.67008 195.94 2.19008ZM202.7 2.19008C202.7 1.72008 203.08 1.33008 203.56 1.33008H207.86C208.33 1.33008 208.72 1.71008 208.72 2.19008C208.72 2.66008 208.34 3.05008 207.86 3.05008H203.56C203.08 3.05008 202.7 2.67008 202.7 2.19008ZM211.29 2.19008C211.29 1.72008 211.67 1.33008 212.15 1.33008H216.45C216.92 1.33008 217.31 1.71008 217.31 2.19008C217.31 2.66008 216.93 3.05008 216.45 3.05008H212.15C211.68 3.05008 211.29 2.67008 211.29 2.19008Z" fill="#464646"/>
<path d="M18.15 65.8499H37.8C38.27 65.8499 38.66 65.4699 38.66 64.9899C38.66 64.5199 38.28 64.1299 37.8 64.1299H18.15C17.68 64.1299 17.29 64.5099 17.29 64.9899C17.29 65.4699 17.68 65.8499 18.15 65.8499Z" fill="#464646"/>
<path d="M8.06001 65.8499H11.9C12.37 65.8499 12.76 65.4699 12.76 64.9899C12.76 64.5199 12.38 64.1299 11.9 64.1299H8.06001C7.59001 64.1299 7.20001 64.5099 7.20001 64.9899C7.20001 65.4699 7.59001 65.8499 8.06001 65.8499Z" fill="#464646"/>
<path d="M165.8 0C165.8 0 166.21 2.92 162.8 2.85C162.8 2.85 165.73 2.88 165.65 5.62C165.65 5.62 165.91 3.47 168.6 2.98C168.6 2.98 166.33 3.5 165.8 0Z" fill="#464646"/>
<path d="M3 104.87C3 104.87 3.41 107.79 0 107.72C0 107.72 2.93 107.75 2.85 110.49C2.85 110.49 3.11 108.34 5.8 107.85C5.8 107.85 3.53 108.37 3 104.87Z" fill="#464646"/>
<path d="M143.48 55.7001C143.48 54.1101 144.77 52.8201 146.36 52.8201C147.95 52.8201 149.24 54.1101 149.24 55.7001C149.24 57.2901 147.95 58.5801 146.36 58.5801C144.77 58.5801 143.48 57.2901 143.48 55.7001ZM144.91 55.7001C144.91 56.5001 145.56 57.1501 146.36 57.1501C147.16 57.1501 147.81 56.5001 147.81 55.7001C147.81 54.9001 147.16 54.2501 146.36 54.2501C145.56 54.2501 144.91 54.9001 144.91 55.7001Z" fill="#464646"/>
<path d="M179.26 69.1501C178.87 69.1501 178.55 69.4701 178.55 69.8601V71.5201C178.55 71.9101 178.87 72.2301 179.26 72.2301C179.65 72.2301 179.97 71.9101 179.97 71.5201V69.8601C179.97 69.4701 179.65 69.1501 179.26 69.1501Z" fill="#464646"/>
<path d="M177.39 67.49H175.74C175.35 67.49 175.03 67.81 175.03 68.2C175.03 68.59 175.35 68.91 175.74 68.91H177.39C177.78 68.91 178.1 68.59 178.1 68.2C178.11 67.81 177.79 67.49 177.39 67.49Z" fill="#464646"/>
<path d="M179.26 64.0601C178.87 64.0601 178.55 64.3801 178.55 64.7701V66.4201C178.55 66.8101 178.87 67.1301 179.26 67.1301C179.65 67.1301 179.97 66.8101 179.97 66.4201V64.7701C179.97 64.3801 179.65 64.0601 179.26 64.0601Z" fill="#464646"/>
<path d="M182.78 67.3801H181.13C180.74 67.3801 180.42 67.7001 180.42 68.0901C180.42 68.4801 180.74 68.8001 181.13 68.8001H182.78C183.17 68.8001 183.49 68.4801 183.49 68.0901C183.5 67.7001 183.18 67.3801 182.78 67.3801Z" fill="#464646"/>
<path d="M362.64 92.98H363.15C360.34 84.99 352.79 79.25 343.9 79.25C335 79.25 327.46 84.99 324.65 92.98H322.95C316.64 92.98 311.52 98.1 311.52 104.41V107.18H374.07V104.41C374.07 98.1 368.95 92.98 362.64 92.98Z" stroke="#464646" stroke-width="2.4232" stroke-miterlimit="10" stroke-linecap="round" stroke-linejoin="round"/>
<path d="M396.6 202.92H376.95C376.48 202.92 376.09 203.3 376.09 203.78C376.09 204.25 376.47 204.64 376.95 204.64H396.6C397.07 204.64 397.46 204.26 397.46 203.78C397.46 203.3 397.07 202.92 396.6 202.92Z" fill="#464646"/>
<path d="M370.7 202.92H366.86C366.39 202.92 366 203.3 366 203.78C366 204.26 366.38 204.64 366.86 204.64H370.7C371.17 204.64 371.56 204.26 371.56 203.78C371.56 203.3 371.17 202.92 370.7 202.92Z" fill="#464646"/>
<path d="M387.37 209.76C387.37 210.23 386.99 210.62 386.51 210.62H384.05C383.58 210.62 383.19 210.23 383.19 209.76C383.19 209.29 383.57 208.9 384.05 208.9H386.51C386.98 208.91 387.37 209.29 387.37 209.76ZM380.61 209.76C380.61 210.23 380.23 210.62 379.75 210.62H375.45C374.98 210.62 374.59 210.23 374.59 209.76C374.59 209.29 374.97 208.9 375.45 208.9H379.75C380.23 208.91 380.61 209.29 380.61 209.76ZM372.02 209.76C372.02 210.23 371.64 210.62 371.16 210.62H366.86C366.39 210.62 366 210.23 366 209.76C366 209.29 366.38 208.9 366.86 208.9H371.16C371.63 208.91 372.02 209.29 372.02 209.76Z" fill="#464646"/>
<path d="M400.27 220.65C399.8 220.65 399.41 221.03 399.41 221.51V223.5C399.41 223.97 399.79 224.36 400.27 224.36C400.74 224.36 401.13 223.98 401.13 223.5V221.51C401.13 221.03 400.74 220.65 400.27 220.65Z" fill="#464646"/>
<path d="M398.02 218.65H396.03C395.56 218.65 395.17 219.03 395.17 219.51C395.17 219.99 395.56 220.37 396.03 220.37H398.02C398.49 220.37 398.88 219.99 398.88 219.51C398.88 219.03 398.49 218.65 398.02 218.65Z" fill="#464646"/>
<path d="M400.27 214.52C399.8 214.52 399.41 214.9 399.41 215.38V217.37C399.41 217.84 399.79 218.23 400.27 218.23C400.74 218.23 401.13 217.85 401.13 217.37V215.38C401.13 214.9 400.74 214.52 400.27 214.52Z" fill="#464646"/>
<path d="M404.51 218.51H402.52C402.05 218.51 401.66 218.89 401.66 219.37C401.66 219.84 402.04 220.23 402.52 220.23H404.51C404.98 220.23 405.37 219.85 405.37 219.37C405.37 218.9 404.99 218.51 404.51 218.51Z" fill="#464646"/>
<path d="M386.03 90.25C386.03 90.25 386.44 93.17 383.03 93.1C383.03 93.1 385.96 93.13 385.88 95.87C385.88 95.87 386.14 93.72 388.83 93.23C388.83 93.24 386.56 93.76 386.03 90.25Z" fill="#464646"/>
<path d="M334.86 148.04C334.86 146.45 336.15 145.16 337.74 145.16C339.33 145.16 340.62 146.45 340.62 148.04C340.62 149.63 339.33 150.92 337.74 150.92C336.15 150.92 334.86 149.63 334.86 148.04ZM336.28 148.04C336.28 148.84 336.93 149.49 337.73 149.49C338.53 149.49 339.18 148.84 339.18 148.04C339.18 147.24 338.53 146.59 337.73 146.59C336.94 146.59 336.28 147.24 336.28 148.04Z" fill="#464646"/>
<path d="M325.21 122.21C324.82 122.21 324.5 122.53 324.5 122.92V124.58C324.5 124.97 324.82 125.29 325.21 125.29C325.6 125.29 325.92 124.97 325.92 124.58V122.92C325.93 122.53 325.61 122.21 325.21 122.21Z" fill="#464646"/>
<path d="M323.35 120.55H321.7C321.31 120.55 320.99 120.87 320.99 121.26C320.99 121.65 321.31 121.97 321.7 121.97H323.35C323.74 121.97 324.06 121.65 324.06 121.26C324.06 120.87 323.74 120.55 323.35 120.55Z" fill="#464646"/>
<path d="M325.21 117.12C324.82 117.12 324.5 117.44 324.5 117.83V119.48C324.5 119.87 324.82 120.19 325.21 120.19C325.6 120.19 325.92 119.87 325.92 119.48V117.83C325.93 117.44 325.61 117.12 325.21 117.12Z" fill="#464646"/>
<path d="M328.74 120.44H327.09C326.7 120.44 326.38 120.76 326.38 121.15C326.38 121.54 326.7 121.86 327.09 121.86H328.74C329.13 121.86 329.45 121.54 329.45 121.15C329.45 120.76 329.13 120.44 328.74 120.44Z" fill="#464646"/>
<path d="M324.61 186.58H340.92C341.31 186.58 341.63 186.26 341.63 185.87C341.63 185.48 341.31 185.16 340.92 185.16H324.61C324.22 185.16 323.9 185.48 323.9 185.87C323.9 186.26 324.22 186.58 324.61 186.58Z" fill="#464646"/>
<path d="M316.23 186.59H319.42C319.81 186.59 320.13 186.27 320.13 185.88C320.13 185.49 319.81 185.17 319.42 185.17H316.23C315.84 185.17 315.52 185.49 315.52 185.88C315.52 186.27 315.84 186.59 316.23 186.59Z" fill="#464646"/>
<path d="M69.7238 81.2976C69.0652 79.0476 68.8594 76.8251 69.0927 74.6301C69.3259 72.435 70.0256 70.3223 71.1917 68.2918C72.3578 66.2751 73.9904 64.4505 76.1169 62.8179C78.847 60.7189 81.4125 59.347 83.8133 58.7022C86.2142 58.0436 88.3955 57.8516 90.3711 58.1122C92.3466 58.3729 94.0615 58.9628 95.5295 59.882C96.9974 60.8012 98.1635 61.8164 99.0141 62.9277C100.427 64.766 101.36 66.4809 101.785 68.0312C102.224 69.5952 102.403 71.0631 102.348 72.4625C102.293 73.8481 102.046 75.1789 101.648 76.441C101.237 77.7032 100.88 78.9242 100.564 80.104C100.249 81.2976 100.098 82.4911 100.084 83.7259C100.084 84.9469 100.441 86.209 101.168 87.4712L102.855 89.6663L95.0767 95.6478L93.0875 93.0549C91.9351 91.3126 91.1942 89.68 90.8512 88.1709C90.5083 86.6618 90.3848 85.235 90.4808 83.9179C90.5631 82.6009 90.7689 81.3525 91.0982 80.1863C91.4274 79.0202 91.6881 77.8952 91.9076 76.8251C92.1134 75.7413 92.1546 74.6987 92.0311 73.6972C91.9076 72.6957 91.4274 71.6942 90.5906 70.679C89.2324 68.9092 87.7919 67.9351 86.2828 67.7568C84.7737 67.5784 83.2371 68.0723 81.7006 69.2522C80.6579 70.0479 79.9171 70.9396 79.4781 71.9137C79.0391 72.8877 78.8333 73.903 78.8744 74.9456C78.9156 75.9883 79.1625 77.0447 79.629 78.1285C80.0954 79.2123 80.7265 80.2687 81.5222 81.3113L73.0438 87.8142C71.4935 85.7152 70.3823 83.5338 69.7238 81.2976ZM105.997 92.7668L112.816 101.643L103.761 108.599L96.9425 99.7224L105.997 92.7668Z" fill="#464646"/>
<path d="M76.2541 132.388C75.0193 131.715 73.9767 130.851 73.1535 129.808C72.3167 128.766 71.713 127.572 71.3563 126.214C70.9859 124.856 70.9173 123.374 71.1231 121.783C71.3975 119.725 71.9051 118.051 72.6459 116.748C73.3868 115.445 74.2374 114.429 75.184 113.702C76.1306 112.975 77.1184 112.495 78.1336 112.262C79.1488 112.028 80.0817 111.96 80.9186 112.07C82.3042 112.248 83.4292 112.591 84.2798 113.057C85.1304 113.538 85.8437 114.086 86.4062 114.704C86.9687 115.321 87.4352 115.993 87.8056 116.693C88.1623 117.406 88.5327 118.079 88.9031 118.71C89.2735 119.354 89.7263 119.931 90.2476 120.452C90.7689 120.973 91.4549 121.357 92.3055 121.591L93.9518 121.81L93.1835 127.668L91.2217 127.449C89.9869 127.202 88.9717 126.818 88.1897 126.324C87.4077 125.816 86.7492 125.267 86.2142 124.678C85.6928 124.074 85.2538 123.457 84.8834 122.825C84.5267 122.194 84.1563 121.591 83.7859 121.042C83.4155 120.493 82.9902 120.027 82.51 119.656C82.0298 119.286 81.3987 119.066 80.603 118.984C79.2723 118.806 78.2433 119.012 77.5162 119.574C76.7891 120.136 76.3501 121.001 76.1992 122.167C76.0894 122.949 76.158 123.649 76.3913 124.252C76.6245 124.856 76.9675 125.377 77.4202 125.802C77.8866 126.228 78.4354 126.584 79.0939 126.845C79.7524 127.106 80.4658 127.298 81.2478 127.394L80.411 133.773C78.8881 133.526 77.4888 133.074 76.2541 132.388ZM96.5996 121.838L103.294 122.716L102.403 129.534L95.7078 128.656L96.5996 121.838Z" fill="#464646"/>
<path d="M123.242 80.6939C123.736 79.3769 124.436 78.2245 125.341 77.2504C126.247 76.2764 127.344 75.5081 128.634 74.9456C129.923 74.3831 131.378 74.095 132.983 74.0813C135.054 74.0539 136.797 74.3145 138.182 74.8633C139.582 75.4121 140.707 76.1117 141.557 76.9486C142.422 77.7855 143.039 78.6909 143.409 79.665C143.793 80.6391 143.985 81.5445 143.999 82.3951C144.013 83.7945 143.848 84.9469 143.505 85.8661C143.149 86.7715 142.71 87.5535 142.175 88.212C141.64 88.8568 141.05 89.4193 140.405 89.872C139.76 90.3385 139.143 90.7912 138.566 91.2577C137.99 91.7241 137.483 92.2455 137.03 92.8354C136.591 93.4253 136.316 94.1661 136.207 95.0442L136.234 96.7042L130.321 96.7865L130.294 94.8109C130.362 93.5488 130.596 92.4924 130.98 91.6418C131.364 90.7912 131.817 90.0641 132.324 89.4605C132.846 88.8568 133.394 88.3355 133.971 87.8828C134.547 87.4438 135.082 86.991 135.576 86.552C136.07 86.113 136.467 85.6191 136.756 85.0841C137.057 84.549 137.181 83.8905 137.14 83.1085C137.126 81.764 136.783 80.7762 136.111 80.1452C135.438 79.5141 134.533 79.1985 133.367 79.2123C132.585 79.226 131.899 79.3906 131.336 79.7062C130.774 80.0217 130.308 80.4333 129.951 80.9546C129.594 81.4759 129.333 82.0796 129.169 82.7655C129.004 83.4515 128.922 84.1923 128.936 84.9743L122.501 85.0566C122.501 83.4652 122.748 82.011 123.242 80.6939ZM136.618 99.3108L136.714 106.061L129.841 106.157L129.745 99.4068L136.618 99.3108Z" fill="#464646"/>
<path d="M284.1 17.71C284.57 17.71 284.96 17.33 284.96 16.85V14.86C284.96 14.39 284.58 14 284.1 14C283.63 14 283.24 14.38 283.24 14.86V16.85C283.24 17.33 283.63 17.71 284.1 17.71Z" fill="#464646"/>
<path d="M286.35 19.71H288.34C288.81 19.71 289.2 19.33 289.2 18.85C289.2 18.38 288.82 17.99 288.34 17.99H286.35C285.88 17.99 285.49 18.37 285.49 18.85C285.49 19.33 285.88 19.71 286.35 19.71Z" fill="#464646"/>
<path d="M284.1 23.8399C284.57 23.8399 284.96 23.4599 284.96 22.9799V20.9899C284.96 20.5199 284.58 20.1299 284.1 20.1299C283.63 20.1299 283.24 20.5099 283.24 20.9899V22.9799C283.24 23.4599 283.63 23.8399 284.1 23.8399Z" fill="#464646"/>
<path d="M279.86 19.8499H281.85C282.32 19.8499 282.71 19.4699 282.71 18.9899C282.71 18.5199 282.33 18.1299 281.85 18.1299H279.86C279.39 18.1299 279 18.5099 279 18.9899C279 19.4699 279.39 19.8499 279.86 19.8499Z" fill="#464646"/>
<path d="M256.9 62H253.71C253.32 62 253 62.32 253 62.72C253 63.12 253.32 63.43 253.71 63.43H256.9C257.29 63.43 257.61 63.11 257.61 62.72C257.61 62.33 257.29 62 256.9 62Z" fill="#464646"/>
<path d="M278.4 62.01H262.09C261.7 62.01 261.38 62.33 261.38 62.72C261.38 63.11 261.7 63.43 262.09 63.43H278.4C278.79 63.43 279.11 63.11 279.11 62.72C279.11 62.33 278.79 62.01 278.4 62.01Z" fill="#464646"/>
<path d="M270.74 67.69C270.74 68.08 270.42 68.4 270.03 68.4H267.99C267.6 68.4 267.28 68.08 267.28 67.69C267.28 67.3 267.6 66.98 267.99 66.98H270.03C270.42 66.98 270.74 67.3 270.74 67.69ZM265.13 67.69C265.13 68.08 264.81 68.4 264.42 68.4H260.85C260.46 68.4 260.14 68.08 260.14 67.69C260.14 67.3 260.46 66.98 260.85 66.98H264.42C264.81 66.98 265.13 67.3 265.13 67.69ZM258 67.69C258 68.08 257.68 68.4 257.29 68.4H253.71C253.32 68.4 253 68.08 253 67.69C253 67.3 253.32 66.98 253.71 66.98H257.28C257.68 66.98 258 67.3 258 67.69Z" fill="#464646"/>
<path d="M66.33 198.84H66.84C64.03 190.85 56.48 185.11 47.59 185.11C38.69 185.11 31.15 190.85 28.34 198.84H26.64C20.33 198.84 15.21 203.96 15.21 210.27V213.04H77.76V210.27C77.76 203.96 72.65 198.84 66.33 198.84Z" stroke="#464646" stroke-width="2.4232" stroke-miterlimit="10" stroke-linecap="round" stroke-linejoin="round"/>
<path d="M50.28 177.07C50.28 175.48 51.57 174.19 53.16 174.19C54.75 174.19 56.04 175.48 56.04 177.07C56.04 178.66 54.75 179.95 53.16 179.95C51.57 179.94 50.28 178.65 50.28 177.07ZM51.71 177.07C51.71 177.87 52.36 178.52 53.16 178.52C53.96 178.52 54.61 177.87 54.61 177.07C54.61 176.27 53.96 175.62 53.16 175.62C52.36 175.61 51.71 176.26 51.71 177.07Z" fill="#464646"/>
<path d="M66.83 150.09C66.44 150.09 66.12 150.41 66.12 150.8V152.46C66.12 152.85 66.44 153.17 66.83 153.17C67.22 153.17 67.54 152.85 67.54 152.46V150.8C67.55 150.41 67.23 150.09 66.83 150.09Z" fill="#464646"/>
<path d="M64.97 148.43H63.32C62.93 148.43 62.61 148.75 62.61 149.14C62.61 149.53 62.93 149.85 63.32 149.85H64.97C65.36 149.85 65.68 149.53 65.68 149.14C65.68 148.75 65.36 148.43 64.97 148.43Z" fill="#464646"/>
<path d="M66.83 145C66.44 145 66.12 145.32 66.12 145.71V147.36C66.12 147.75 66.44 148.07 66.83 148.07C67.22 148.07 67.54 147.75 67.54 147.36V145.71C67.55 145.32 67.23 145 66.83 145Z" fill="#464646"/>
<path d="M70.36 148.31H68.7C68.31 148.31 67.99 148.63 67.99 149.02C67.99 149.41 68.31 149.73 68.7 149.73H70.35C70.74 149.73 71.06 149.41 71.06 149.02C71.06 148.63 70.75 148.31 70.36 148.31Z" fill="#464646"/>
<path d="M71.31 229.49H87.62C88.01 229.49 88.33 229.17 88.33 228.78C88.33 228.39 88.01 228.07 87.62 228.07H71.31C70.92 228.07 70.6 228.39 70.6 228.78C70.6 229.17 70.92 229.49 71.31 229.49Z" fill="#464646"/>
<path d="M62.93 229.49H66.12C66.51 229.49 66.83 229.17 66.83 228.78C66.83 228.39 66.51 228.07 66.12 228.07H62.93C62.54 228.07 62.22 228.39 62.22 228.78C62.22 229.17 62.54 229.49 62.93 229.49Z" fill="#464646"/>
<path d="M299 264.57C299 262.98 300.29 261.69 301.88 261.69C303.47 261.69 304.76 262.98 304.76 264.57C304.76 266.16 303.47 267.45 301.88 267.45C300.29 267.45 299 266.16 299 264.57ZM300.43 264.57C300.43 265.37 301.08 266.02 301.88 266.02C302.68 266.02 303.33 265.37 303.33 264.57C303.33 263.77 302.68 263.12 301.88 263.12C301.08 263.12 300.43 263.77 300.43 264.57Z" fill="#464646"/>
<path d="M337.26 240.09C336.87 240.09 336.55 240.41 336.55 240.8V242.46C336.55 242.85 336.87 243.17 337.26 243.17C337.65 243.17 337.97 242.85 337.97 242.46V240.8C337.98 240.41 337.66 240.09 337.26 240.09Z" fill="#464646"/>
<path d="M335.4 238.43H333.75C333.36 238.43 333.04 238.75 333.04 239.14C333.04 239.53 333.36 239.85 333.75 239.85H335.4C335.79 239.85 336.11 239.53 336.11 239.14C336.11 238.75 335.79 238.43 335.4 238.43Z" fill="#464646"/>
<path d="M337.26 235C336.87 235 336.55 235.32 336.55 235.71V237.36C336.55 237.75 336.87 238.07 337.26 238.07C337.65 238.07 337.97 237.75 337.97 237.36V235.71C337.98 235.32 337.66 235 337.26 235Z" fill="#464646"/>
<path d="M340.78 238.31H339.13C338.74 238.31 338.42 238.63 338.42 239.02C338.42 239.41 338.74 239.73 339.13 239.73H340.78C341.17 239.73 341.49 239.41 341.49 239.02C341.5 238.63 341.18 238.31 340.78 238.31Z" fill="#464646"/>
<path d="M344.22 256.83C343.75 256.83 343.36 257.21 343.36 257.69V259.68C343.36 260.15 343.74 260.54 344.22 260.54C344.69 260.54 345.08 260.16 345.08 259.68V257.69C345.08 257.21 344.7 256.83 344.22 256.83Z" fill="#464646"/>
<path d="M341.97 254.83H339.98C339.51 254.83 339.12 255.21 339.12 255.69C339.12 256.17 339.5 256.55 339.98 256.55H341.97C342.44 256.55 342.83 256.17 342.83 255.69C342.83 255.22 342.45 254.83 341.97 254.83Z" fill="#464646"/>
<path d="M344.22 250.7C343.75 250.7 343.36 251.08 343.36 251.56V253.55C343.36 254.02 343.74 254.41 344.22 254.41C344.69 254.41 345.08 254.03 345.08 253.55V251.56C345.08 251.08 344.7 250.7 344.22 250.7Z" fill="#464646"/>
<path d="M348.47 254.69H346.48C346.01 254.69 345.62 255.07 345.62 255.55C345.62 256.02 346 256.41 346.48 256.41H348.47C348.94 256.41 349.33 256.03 349.33 255.55C349.33 255.08 348.94 254.69 348.47 254.69Z" fill="#464646"/>
</svg>
