<svg width="24" height="22" viewBox="0 0 24 22" fill="none" xmlns="http://www.w3.org/2000/svg">
<path d="M24 7.03532H21.7964C21.1277 5.10487 19.8904 3.37914 18.2718 2.13459C16.4556 0.738124 14.2868 0 12 0C9.71325 0 7.54448 0.738124 5.72827 2.13459C4.10967 3.37909 2.87236 5.10483 2.20364 7.03532H0V14.9897H2.21217C2.88661 16.9213 4.13236 18.6472 5.75714 19.8875C7.56755 21.2695 9.72633 22 12 22C14.2737 22 16.4325 21.2695 18.2429 19.8875C19.8677 18.6472 21.1134 16.9213 21.7878 14.9897H24V7.03532ZM20.2916 7.03532H17.1647C16.8194 5.77792 16.2897 4.59129 15.5865 3.50104C15.1687 2.85322 14.6944 2.24757 14.1674 1.68774C15.3382 1.98054 16.4393 2.51276 17.421 3.26758C18.6883 4.24205 19.6852 5.55713 20.2916 7.03532ZM11.2966 2.2221V7.03532H8.30236C8.60705 6.05966 9.03839 5.13542 9.59091 4.27872C10.0756 3.52708 10.647 2.83932 11.2966 2.2221ZM12.7029 2.22187C13.3526 2.83914 13.9241 3.52698 14.4089 4.27872C14.9614 5.13542 15.3928 6.05971 15.6975 7.03532H12.7029V2.22187H12.7029ZM6.57909 3.26758C7.5607 2.51286 8.66161 1.98063 9.83231 1.68784C9.30534 2.24762 8.83102 2.85327 8.41322 3.50108C7.71005 4.59134 7.18041 5.77797 6.83503 7.03537H3.70842C4.31475 5.55708 5.31173 4.24201 6.57909 3.26758ZM3.71845 14.9897H6.83231C7.42327 16.981 8.48138 18.8296 9.86269 20.3194C8.69077 20.0307 7.5878 19.5025 6.60408 18.7516C5.33269 17.7811 4.32975 16.4673 3.71845 14.9897ZM12.7029 19.78V14.9897H15.6902C15.1125 16.8329 14.0971 18.4596 12.7029 19.78ZM11.2966 19.7657C9.96192 18.4695 8.91933 16.8063 8.30892 14.9896H11.2966V19.7657ZM17.3959 18.7515C16.4206 19.4961 15.328 20.0217 14.1673 20.3121C14.6862 19.7609 15.1542 19.1653 15.5673 18.5287C16.2751 17.438 16.8086 16.2495 17.1574 14.9897H20.2815C19.6702 16.4673 18.6673 17.7811 17.3959 18.7515ZM22.5938 13.5667H1.40625V8.45826H22.5938V13.5667Z" fill="#d13138"/>
<path d="M6.29784 12.614L6.81117 10.9815L7.29863 12.614H8.38997L9.35625 9.55853H8.38997L7.83352 11.3176L7.30725 9.55853H6.37116L5.8147 11.2957L5.28839 9.55853H4.24017L5.20645 12.614H6.29784Z" fill="#d13138"/>
<path d="M11.4998 12.614L12.0131 10.9815L12.5006 12.614H13.5919L14.5582 9.55853H13.5919L13.0355 11.3176L12.5092 9.55853H11.5731L11.0166 11.2957L10.4904 9.55853H9.44214L10.4084 12.614H11.4998Z" fill="#d13138"/>
<path d="M16.7018 12.614L17.2152 10.9815L17.7026 12.614H18.794L19.7602 9.55853H18.794L18.2375 11.3176L17.7112 9.55853H16.7751L16.2187 11.2957L15.6924 9.55853H14.6442L15.6104 12.614H16.7018Z" fill="#d13138"/>
</svg>
