<svg width="16" height="16" viewBox="0 0 16 16" fill="none" xmlns="http://www.w3.org/2000/svg">
<path d="M4.86489 0.84486C4.32322 0.306337 2.38957 -0.726619 0.811797 0.84486C-0.706146 2.3565 0.270124 4.34684 0.811797 4.88536C0.899976 4.97354 1.01335 5.01448 1.12672 5.01448C1.2401 5.01448 1.35347 4.97039 1.44165 4.88536L4.86489 1.47471C4.94992 1.39283 4.99401 1.27946 4.99401 1.15979C4.99401 1.04011 4.94677 0.92989 4.86489 0.84486ZM1.16451 3.90909C0.96926 3.60046 0.45908 2.45728 1.44165 1.47471C2.4872 0.432308 3.5737 1.00232 3.88547 1.19443L1.16451 3.90909Z" fill="#464646"/>
<path d="M15.1881 0.835485C13.6103 -0.739144 11.6767 0.296962 11.135 0.835485C11.0499 0.917366 11.0059 1.03074 11.0059 1.15041C11.0059 1.26693 11.0531 1.38031 11.135 1.46534L14.5582 4.87913C14.6464 4.96416 14.7598 5.00825 14.8731 5.00825C14.9865 5.00825 15.0999 4.96416 15.1881 4.87913C15.7297 4.33746 16.706 2.35028 15.1881 0.835485ZM14.8385 3.89971L12.1175 1.18505C12.4293 0.989799 13.5158 0.419783 14.5614 1.46534C15.5439 2.44791 15.0338 3.59109 14.8385 3.89971Z" fill="#464646"/>
<path d="M11.8406 13.9522C13.516 12.7555 14.6088 10.7998 14.6088 8.59535C14.6088 4.96426 11.6454 2.01025 8.00167 2.01025C4.35798 2.01025 1.39453 4.96426 1.39453 8.59535C1.39453 10.7998 2.48732 12.7555 4.16273 13.9491L2.86838 15.2403C2.69517 15.4135 2.69517 15.6938 2.86838 15.8701C3.04159 16.0433 3.32503 16.0433 3.49824 15.8701L4.9406 14.4309C5.85703 14.9096 6.89628 15.1836 8.00167 15.1836C9.10391 15.1836 10.1463 14.9096 11.0628 14.4309L12.5051 15.8701C12.6783 16.0433 12.9618 16.0433 13.135 15.8701C13.3082 15.6969 13.3082 15.4166 13.135 15.2403L11.8406 13.9522ZM8.00167 14.2924C4.84927 14.2924 2.28577 11.7352 2.28577 8.59535C2.28577 5.45554 4.84927 2.89834 8.00167 2.89834C11.1541 2.89834 13.7176 5.45554 13.7176 8.59535C13.7176 11.7352 11.1541 14.2924 8.00167 14.2924Z" fill="#464646"/>
<path d="M9.7369 8.22655H8.44571V5.41426C8.44571 5.16862 8.2473 4.97021 8.00166 4.97021C7.75602 4.97021 7.55762 5.16862 7.55762 5.41426V8.67059C7.55762 8.91623 7.75602 9.11464 8.00166 9.11464H9.7369C9.98255 9.11464 10.1809 8.91623 10.1809 8.67059C10.1809 8.42495 9.98255 8.22655 9.7369 8.22655Z" fill="#464646"/>
</svg>
