<svg width="8" height="12" viewBox="0 0 8 12" fill="none" xmlns="http://www.w3.org/2000/svg">
<path d="M7.29636 5.53176L1.61527 0.191706C1.48387 0.068097 1.30847 0 1.12144 0C0.934412 0 0.759009 0.068097 0.627612 0.191706L0.209239 0.584873C-0.0629998 0.841066 -0.0629998 1.25745 0.209239 1.51326L4.97979 5.99751L0.203945 10.4867C0.0725485 10.6104 0 10.7751 0 10.9508C0 11.1267 0.0725485 11.2915 0.203945 11.4152L0.622319 11.8083C0.753819 11.9319 0.929119 12 1.11615 12C1.30317 12 1.47858 11.9319 1.60997 11.8083L7.29636 6.46336C7.42807 6.33936 7.50041 6.1738 7.5 5.99781C7.50041 5.82112 7.42807 5.65566 7.29636 5.53176Z" fill="#464646"/>
</svg>
