<svg width="16" height="16" viewBox="0 0 16 16" fill="none" xmlns="http://www.w3.org/2000/svg">
<path d="M7.88564 0C4.7978 0 2.28564 2.52338 2.28564 5.625C2.28564 6.67294 2.57464 7.69563 3.12157 8.58288L7.56688 15.7784C7.65203 15.9163 7.80205 16 7.96339 16C7.96464 16 7.96585 16 7.96709 16C8.12984 15.9987 8.28016 15.9124 8.36376 15.7721L12.6958 8.50688C13.2125 7.63838 13.4856 6.64184 13.4856 5.625C13.4856 2.52338 10.9735 0 7.88564 0ZM11.8948 8.02556L7.95633 14.6308L3.91484 8.08894C3.45959 7.35044 3.21276 6.49844 3.21276 5.625C3.21276 3.04031 5.31244 0.93125 7.88564 0.93125C10.4588 0.93125 12.5554 3.04031 12.5554 5.625C12.5554 6.47253 12.3249 7.30275 11.8948 8.02556Z" fill="#464646"/>
<path d="M7.88569 2.8125C6.34177 2.8125 5.08569 4.07419 5.08569 5.625C5.08569 7.16591 6.32133 8.4375 7.88569 8.4375C9.46934 8.4375 10.6857 7.14897 10.6857 5.625C10.6857 4.07419 9.42961 2.8125 7.88569 2.8125ZM7.88569 7.50625C6.85103 7.50625 6.0128 6.66147 6.0128 5.625C6.0128 4.59113 6.85641 3.74375 7.88569 3.74375C8.91497 3.74375 9.75547 4.59113 9.75547 5.625C9.75547 6.64634 8.93675 7.50625 7.88569 7.50625Z" fill="#464646"/>
</svg>
