<svg width="16" height="17" viewBox="0 0 16 17" fill="none" xmlns="http://www.w3.org/2000/svg">
<path d="M15.3614 5.76215C14.5178 3.79739 13.0843 2.36848 11.1013 1.52352C10.1101 1.10121 9.07169 0.885498 7.98685 0.885498C6.9022 0.885498 5.87145 1.09917 4.88139 1.52352C2.91472 2.36623 1.4749 3.79423 0.629856 5.76215C0.206405 6.74807 0 7.78097 0 8.86457C0 9.94838 0.206405 10.9899 0.629856 11.976C1.4749 13.9439 2.9149 15.3805 4.88139 16.2234C5.87163 16.6477 6.90217 16.8612 7.98685 16.8612C9.07153 16.8612 10.1101 16.6455 11.1011 16.2234C13.0842 15.3784 14.5176 13.9406 15.3614 11.976C15.7861 10.9867 16 9.94838 16 8.86457C16 7.78097 15.7863 6.75141 15.3614 5.76215ZM14.0843 12.3955C13.4563 13.4714 12.5959 14.325 11.5124 14.9561C10.4354 15.5835 9.25535 15.8999 7.98703 15.8999C7.03357 15.8999 6.12376 15.7165 5.25762 15.3406C4.3915 14.9649 3.64369 14.471 3.01812 13.8462C2.39255 13.2213 1.89464 12.4669 1.52233 11.6001C1.15111 10.7365 0.971216 9.81732 0.971216 8.8646C0.971216 7.59733 1.28288 6.42441 1.90735 5.35144C2.53404 4.27455 3.39456 3.42006 4.47046 2.79079C5.54617 2.16154 6.71856 1.84681 7.98685 1.84681C9.25535 1.84681 10.4352 2.16339 11.5122 2.79079C12.5958 3.42191 13.4542 4.27638 14.0841 5.35141C14.714 6.42626 15.0288 7.59733 15.0288 8.86457C15.0288 10.1319 14.716 11.3128 14.0843 12.3955Z" fill="#0E3494"/>
<path d="M8.49425 8.79481V4.26773C8.49425 3.99683 8.25799 3.77832 7.9868 3.77832C7.73318 3.77832 7.50568 3.99683 7.50568 4.26773V8.8647C7.50568 8.87348 7.52322 8.90853 7.52322 8.93465C7.50568 9.09198 7.54955 9.22307 7.65443 9.32804L10.2702 11.9411C10.4452 12.1159 10.7688 12.1159 10.9437 11.9411C11.1449 11.7401 11.1317 11.4485 10.9437 11.2594L8.49425 8.79481Z" fill="#0E3494"/>
</svg>
