<svg width="16" height="16" viewBox="0 0 16 16" fill="none" xmlns="http://www.w3.org/2000/svg">
<path d="M4.86489 0.84486C4.32322 0.306337 2.38957 -0.726619 0.811797 0.84486C-0.706146 2.3565 0.270124 4.34684 0.811797 4.88536C0.899976 4.97354 1.01335 5.01448 1.12672 5.01448C1.2401 5.01448 1.35347 4.97039 1.44165 4.88536L4.86489 1.47471C4.94992 1.39283 4.99401 1.27946 4.99401 1.15979C4.99401 1.04011 4.94677 0.92989 4.86489 0.84486ZM1.16451 3.90909C0.96926 3.60046 0.45908 2.45728 1.44165 1.47471C2.4872 0.432308 3.5737 1.00232 3.88547 1.19443L1.16451 3.90909Z" fill="#464646"/>
<path d="M15.1882 0.835485C13.6104 -0.739144 11.6767 0.296962 11.1351 0.835485C11.05 0.917366 11.006 1.03074 11.006 1.15041C11.006 1.26693 11.0532 1.38031 11.1351 1.46534L14.5583 4.87913C14.6465 4.96416 14.7599 5.00825 14.8732 5.00825C14.9866 5.00825 15.1 4.96416 15.1882 4.87913C15.7298 4.33746 16.7061 2.35028 15.1882 0.835485ZM14.8386 3.89971L12.1176 1.18505C12.4294 0.989799 13.5159 0.419783 14.5615 1.46534C15.544 2.44791 15.0339 3.59109 14.8386 3.89971Z" fill="#464646"/>
<path d="M11.8405 13.9522C13.5159 12.7555 14.6087 10.7998 14.6087 8.59535C14.6087 4.96426 11.6452 2.01025 8.00155 2.01025C4.35786 2.01025 1.39441 4.96426 1.39441 8.59535C1.39441 10.7998 2.4872 12.7555 4.16261 13.9491L2.86826 15.2403C2.69505 15.4135 2.69505 15.6938 2.86826 15.8701C3.04147 16.0433 3.3249 16.0433 3.49811 15.8701L4.94047 14.4309C5.85691 14.9096 6.89616 15.1836 8.00155 15.1836C9.10379 15.1836 10.1462 14.9096 11.0626 14.4309L12.505 15.8701C12.6782 16.0433 12.9616 16.0433 13.1348 15.8701C13.3081 15.6969 13.3081 15.4166 13.1348 15.2403L11.8405 13.9522ZM8.00155 14.2924C4.84914 14.2924 2.28565 11.7352 2.28565 8.59535C2.28565 5.45554 4.84914 2.89834 8.00155 2.89834C11.154 2.89834 13.7175 5.45554 13.7175 8.59535C13.7175 11.7352 11.154 14.2924 8.00155 14.2924Z" fill="#464646"/>
<path d="M9.73678 8.22655H8.44559V5.41426C8.44559 5.16862 8.24718 4.97021 8.00154 4.97021C7.7559 4.97021 7.5575 5.16862 7.5575 5.41426V8.67059C7.5575 8.91623 7.7559 9.11464 8.00154 9.11464H9.73678C9.98242 9.11464 10.1808 8.91623 10.1808 8.67059C10.1808 8.42495 9.98242 8.22655 9.73678 8.22655Z" fill="#464646"/>
</svg>
