<svg width="16" height="16" viewBox="0 0 16 16" fill="none" xmlns="http://www.w3.org/2000/svg">
<path d="M7.88572 0C4.79788 0 2.28572 2.52338 2.28572 5.625C2.28572 6.67294 2.57471 7.69563 3.12165 8.58288L7.56696 15.7784C7.65211 15.9163 7.80212 16 7.96347 16C7.96471 16 7.96593 16 7.96717 16C8.12991 15.9987 8.28024 15.9124 8.36384 15.7721L12.6958 8.50688C13.2126 7.63838 13.4857 6.64184 13.4857 5.625C13.4857 2.52338 10.9736 0 7.88572 0ZM11.8949 8.02556L7.95641 14.6308L3.91492 8.08894C3.45967 7.35044 3.21283 6.49844 3.21283 5.625C3.21283 3.04031 5.31252 0.93125 7.88572 0.93125C10.4589 0.93125 12.5555 3.04031 12.5555 5.625C12.5555 6.47253 12.3249 7.30275 11.8949 8.02556Z" fill="#464646"/>
<path d="M7.88572 2.8125C6.3418 2.8125 5.08572 4.07419 5.08572 5.625C5.08572 7.16591 6.32136 8.4375 7.88572 8.4375C9.46937 8.4375 10.6857 7.14897 10.6857 5.625C10.6857 4.07419 9.42964 2.8125 7.88572 2.8125ZM7.88572 7.50625C6.85106 7.50625 6.01284 6.66147 6.01284 5.625C6.01284 4.59113 6.85644 3.74375 7.88572 3.74375C8.915 3.74375 9.7555 4.59113 9.7555 5.625C9.7555 6.64634 8.93678 7.50625 7.88572 7.50625Z" fill="#464646"/>
</svg>
