<svg xmlns="http://www.w3.org/2000/svg" width="13" height="13" fill="none"><path d="M8.543 6.25l3.516-3.516a1.05 1.05 0 0 0 .316-.773c0-.305-.105-.574-.316-.81L11.285.38c-.234-.21-.504-.316-.81-.316a1.05 1.05 0 0 0-.773.316L6.188 3.895 2.672.38a1.05 1.05 0 0 0-.773-.316c-.305 0-.574.105-.81.316l-.773.773c-.21.234-.316.504-.316.81a1.05 1.05 0 0 0 .316.773L3.832 6.25.316 9.766a1.05 1.05 0 0 0-.316.773c0 .305.105.574.316.81l.773.773c.234.21.504.316.81.316a1.05 1.05 0 0 0 .773-.316l3.516-3.516 3.516 3.516a1.05 1.05 0 0 0 .773.316c.305 0 .574-.105.81-.316l.773-.773c.21-.234.316-.504.316-.81a1.05 1.05 0 0 0-.316-.773L8.543 6.25z" fill="#444"/></svg>