<svg width="40" height="60" viewBox="0 0 40 60" fill="none" xmlns="http://www.w3.org/2000/svg">
<rect width="40" height="60" fill="black" fill-opacity="0.3"/>
<path d="M13.3801 30.9365L23.9848 41.6166C24.2301 41.8638 24.5575 42 24.9066 42C25.2558 42 25.5832 41.8638 25.8285 41.6166L26.6094 40.8303C27.1176 40.3179 27.1176 39.4851 26.6094 38.9735L17.7044 30.005L26.6193 21.0265C26.8646 20.7793 27 20.4497 27 20.0983C27 19.7465 26.8646 19.417 26.6193 19.1695L25.8383 18.3834C25.5929 18.1362 25.2656 18 24.9165 18C24.5674 18 24.24 18.1362 23.9947 18.3834L13.3801 29.0733C13.1343 29.3213 12.9992 29.6524 13 30.0044C12.9992 30.3578 13.1343 30.6887 13.3801 30.9365Z" fill="white"/>
</svg>
