<svg width="16" height="16" viewBox="0 0 16 16" fill="none" xmlns="http://www.w3.org/2000/svg">
<path d="M8 0C4.6916 0 2 2.52338 2 5.625C2 6.67294 2.30963 7.69563 2.89563 8.58288L7.65847 15.7784C7.7497 15.9163 7.91043 16 8.0833 16C8.08463 16 8.08593 16 8.08727 16C8.26163 15.9987 8.4227 15.9124 8.51227 15.7721L13.1537 8.50688C13.7074 7.63838 14 6.64184 14 5.625C14 2.52338 11.3084 0 8 0ZM12.2955 8.02556L8.07573 14.6308L3.74557 8.08894C3.2578 7.35044 2.99333 6.49844 2.99333 5.625C2.99333 3.04031 5.243 0.93125 8 0.93125C10.757 0.93125 13.0033 3.04031 13.0033 5.625C13.0033 6.47253 12.7563 7.30275 12.2955 8.02556Z" fill="#0E3494"/>
<path d="M8 2.8125C6.3458 2.8125 5 4.07419 5 5.625C5 7.16591 6.3239 8.4375 8 8.4375C9.69677 8.4375 11 7.14897 11 5.625C11 4.07419 9.6542 2.8125 8 2.8125ZM8 7.50625C6.89143 7.50625 5.99333 6.66147 5.99333 5.625C5.99333 4.59113 6.8972 3.74375 8 3.74375C9.1028 3.74375 10.0033 4.59113 10.0033 5.625C10.0033 6.64634 9.12613 7.50625 8 7.50625Z" fill="#0E3494"/>
</svg>
