<svg width="40" height="60" viewBox="0 0 40 60" fill="none" xmlns="http://www.w3.org/2000/svg">
<rect width="40" height="60" fill="black" fill-opacity="0.3"/>
<path d="M26.6199 29.0635L16.0152 18.3834C15.7699 18.1362 15.4425 18 15.0934 18C14.7442 18 14.4168 18.1362 14.1715 18.3834L13.3906 19.1697C12.8824 19.6821 12.8824 20.5149 13.3906 21.0265L22.2956 29.995L13.3807 38.9735C13.1354 39.2207 13 39.5503 13 39.9017C13 40.2535 13.1354 40.583 13.3807 40.8305L14.1617 41.6166C14.4071 41.8638 14.7344 42 15.0835 42C15.4326 42 15.76 41.8638 16.0053 41.6166L26.6199 30.9267C26.8657 30.6787 27.0008 30.3476 27 29.9956C27.0008 29.6422 26.8657 29.3113 26.6199 29.0635Z" fill="white"/>
</svg>
