<?xml version="1.0" encoding="utf-8"?>
<!-- Generator: Adobe Illustrator 16.0.0, SVG Export Plug-In . SVG Version: 6.00 Build 0)  -->
<!DOCTYPE svg PUBLIC "-//W3C//DTD SVG 1.1//EN" "http://www.w3.org/Graphics/SVG/1.1/DTD/svg11.dtd">
<svg version="1.1" id="Layer_1" xmlns:v="https://vecta.io/nano"
	 xmlns="http://www.w3.org/2000/svg" xmlns:xlink="http://www.w3.org/1999/xlink" x="0px" y="0px" width="8.197px"
	 height="14.057px" viewBox="-0.063 -0.887 8.197 14.057" enable-background="new -0.063 -0.887 8.197 14.057" xml:space="preserve"
	>
<path fill="#FFFFFF" d="M1.59,12.504c-0.226,0-0.459-0.1-0.624-0.266l-0.587-0.586c-0.171-0.171-0.265-0.393-0.265-0.624
	c0-0.225,0.099-0.457,0.265-0.623L4.645,6.14L0.379,1.875C0.212,1.706,0.115,1.474,0.115,1.251c0-0.225,0.099-0.457,0.263-0.623
	l0.59-0.589c0.161-0.164,0.396-0.265,0.622-0.265s0.46,0.1,0.626,0.266l5.476,5.476c0.166,0.17,0.263,0.401,0.263,0.624
	S7.857,6.595,7.695,6.76l-5.481,5.479C2.047,12.405,1.814,12.504,1.59,12.504z"/>
</svg>
