<?xml version="1.0" encoding="utf-8"?>
<!-- Generator: Adobe Illustrator 16.0.0, SVG Export Plug-In . SVG Version: 6.00 Build 0)  -->
<!DOCTYPE svg PUBLIC "-//W3C//DTD SVG 1.1//EN" "http://www.w3.org/Graphics/SVG/1.1/DTD/svg11.dtd">
<svg version="1.1" id="Layer_1" xmlns:v="https://vecta.io/nano"
	 xmlns="http://www.w3.org/2000/svg" xmlns:xlink="http://www.w3.org/1999/xlink" x="0px" y="0px" width="8.197px"
	 height="14.057px" viewBox="-0.063 -0.887 8.197 14.057" enable-background="new -0.063 -0.887 8.197 14.057" xml:space="preserve"
	>
<path fill="#6F6F6F" d="M1.591,12.506c-0.225,0-0.458-0.1-0.624-0.266l-0.586-0.586c-0.171-0.171-0.265-0.393-0.265-0.624
	c0-0.225,0.099-0.457,0.265-0.623l4.266-4.266L0.381,1.877C0.214,1.708,0.116,1.476,0.116,1.252c0-0.224,0.099-0.457,0.263-0.623
	l0.59-0.588C1.13-0.123,1.364-0.224,1.591-0.224c0.226,0,0.46,0.1,0.626,0.266l5.476,5.475c0.166,0.169,0.263,0.401,0.263,0.624
	s-0.097,0.455-0.259,0.62l-5.481,5.479C2.048,12.407,1.815,12.506,1.591,12.506z"/>
<path fill="#6F6F6F" d="M7.34,6.412l-5.478,5.476c-0.071,0.07-0.177,0.118-0.271,0.118c-0.093,0-0.199-0.048-0.269-0.118
	l-0.588-0.587c-0.07-0.07-0.118-0.165-0.118-0.271c0-0.093,0.048-0.199,0.118-0.27l4.619-4.619L0.734,1.523
	c-0.07-0.071-0.118-0.177-0.118-0.271s0.048-0.2,0.118-0.271l0.588-0.587c0.07-0.071,0.176-0.119,0.269-0.119
	c0.094,0,0.2,0.047,0.271,0.119L7.34,5.871c0.069,0.071,0.116,0.176,0.116,0.271S7.409,6.341,7.34,6.412z"/>
</svg>
