<?xml version="1.0" encoding="utf-8"?>
<!-- Generator: Adobe Illustrator 16.0.0, SVG Export Plug-In . SVG Version: 6.00 Build 0)  -->
<!DOCTYPE svg PUBLIC "-//W3C//DTD SVG 1.1//EN" "http://www.w3.org/Graphics/SVG/1.1/DTD/svg11.dtd">
<svg version="1.1" id="Layer_1" xmlns:v="https://vecta.io/nano"
	 xmlns="http://www.w3.org/2000/svg" xmlns:xlink="http://www.w3.org/1999/xlink" x="0px" y="0px" width="8.197px"
	 height="14.057px" viewBox="-0.063 -0.887 8.197 14.057" enable-background="new -0.063 -0.887 8.197 14.057" xml:space="preserve"
	>
<path fill="#6F6F6F" d="M6.48-0.224c0.226,0,0.459,0.1,0.624,0.266l0.587,0.586c0.171,0.171,0.265,0.393,0.265,0.624
	c0,0.225-0.099,0.457-0.265,0.623L3.426,6.141l4.266,4.265c0.167,0.169,0.265,0.401,0.265,0.624c0,0.225-0.099,0.457-0.263,0.623
	l-0.59,0.589c-0.161,0.164-0.396,0.265-0.622,0.265s-0.46-0.1-0.626-0.266L0.379,6.765c-0.166-0.17-0.263-0.401-0.263-0.624
	s0.097-0.455,0.259-0.62l5.481-5.479C6.023-0.125,6.257-0.224,6.48-0.224z"/>
<path fill="#6F6F6F" d="M0.732,5.87L6.21,0.395c0.07-0.07,0.177-0.118,0.271-0.118c0.093,0,0.199,0.048,0.27,0.118l0.588,0.587
	c0.07,0.07,0.118,0.165,0.118,0.271c0,0.093-0.048,0.199-0.118,0.27L2.719,6.141l4.619,4.618c0.07,0.071,0.118,0.177,0.118,0.271
	c0,0.095-0.048,0.2-0.118,0.271L6.75,11.887c-0.069,0.071-0.176,0.119-0.269,0.119c-0.094,0-0.2-0.047-0.271-0.119L0.732,6.411
	C0.663,6.34,0.616,6.235,0.616,6.141S0.663,5.941,0.732,5.87z"/>
</svg>
