<?xml version="1.0" encoding="utf-8"?>
<!-- Generator: Adobe Illustrator 16.0.0, SVG Export Plug-In . SVG Version: 6.00 Build 0)  -->
<!DOCTYPE svg PUBLIC "-//W3C//DTD SVG 1.1//EN" "http://www.w3.org/Graphics/SVG/1.1/DTD/svg11.dtd">
<svg version="1.1" id="Layer_1" xmlns:v="https://vecta.io/nano"
	 xmlns="http://www.w3.org/2000/svg" xmlns:xlink="http://www.w3.org/1999/xlink" x="0px" y="0px" width="12.245px"
	 height="11.086px" viewBox="-0.987 -0.292 12.245 11.086" enable-background="new -0.987 -0.292 12.245 11.086"
	 xml:space="preserve">
<g>
	<path fill="#FFFFFF" d="M4.666,3.74c0,0.551-0.428,1.008-0.943,1.008h-3.767c-0.515,0-0.942-0.457-0.942-1.008V0.717
		c0-0.551,0.427-1.008,0.942-1.008h3.767c0.515,0,0.943,0.457,0.943,1.008V3.74z M4.666,9.787c0,0.552-0.428,1.008-0.943,1.008
		h-3.767c-0.515,0-0.942-0.456-0.942-1.008V6.764c0-0.552,0.427-1.008,0.942-1.008h3.767c0.515,0,0.943,0.456,0.943,1.008V9.787z
		 M11.258,3.74c0,0.551-0.426,1.008-0.94,1.008H6.549c-0.515,0-0.942-0.457-0.942-1.008V0.717c0-0.551,0.428-1.008,0.942-1.008
		h3.769c0.515,0,0.94,0.457,0.94,1.008V3.74z M11.258,9.787c0,0.552-0.426,1.008-0.94,1.008H6.549c-0.515,0-0.942-0.456-0.942-1.008
		V6.764c0-0.552,0.428-1.008,0.942-1.008h3.769c0.515,0,0.94,0.456,0.94,1.008V9.787z"/>
</g>
</svg>
