<svg width="122" height="42" viewBox="0 0 122 42" fill="none" xmlns="http://www.w3.org/2000/svg">
<path d="M20.7478 0V8.55H26.3916V30H37V0H20.7478Z" fill="#D90000"/>
<path d="M10.1233 8.55V17.1667H15.7671V30H20.7479V8.55H10.1233Z" fill="#85B915"/>
<path d="M26.3916 8.55H20.7478V30H26.3916V8.55Z" fill="#D90000"/>
<path d="M26.3916 8.55H20.7478V30H26.3916V8.55Z" fill="#730001"/>
<path d="M10.1233 17.1666H0V30H10.1233V17.1666Z" fill="#0E3494"/>
<path d="M15.7671 17.1666H10.1233V29.9999H15.7671V17.1666Z" fill="#061742"/>
<path d="M81.2379 6.69836C81.2379 5.03433 81.5474 3.79866 82.1499 3.0243C82.7688 2.23348 83.7622 1.72273 85.179 1.49207V0.0257454H71.4016V1.49207C72.8021 1.72273 73.8118 2.23348 74.4307 3.0243C75.0332 3.81513 75.3427 5.03433 75.3427 6.69836V23.3222C75.3427 24.9863 75.0332 26.222 74.4307 26.9963C73.8118 27.7871 72.8184 28.2979 71.4016 28.5285V29.9949H85.179V28.5285C83.7784 28.2979 82.7688 27.7871 82.1499 26.9963C81.5474 26.2055 81.2379 24.9863 81.2379 23.3222V6.69836Z" fill="#333333"/>
<path d="M109.77 0.0256843V1.49201C111.187 1.72267 112.213 2.23341 112.831 3.02424C113.45 3.81507 113.76 5.03427 113.76 6.6983V17.4074L96.9044 0.0421599L88.6152 0.00920868V1.44259C89.2178 1.57439 89.7552 1.80505 90.1949 2.16751C90.6346 2.52998 91.4652 3.33728 92.6377 4.6059V23.3057C92.6377 24.9697 92.3283 26.2054 91.7094 26.9798C91.0906 27.7706 90.0809 28.2813 88.6478 28.512V29.9783H100.862V28.512C99.445 28.2813 98.419 27.7706 97.8001 26.9798C97.1813 26.1889 96.8719 24.9697 96.8719 23.3057V9.49916L116.219 29.9783H118.01V6.6983C118.01 5.03427 118.32 3.7986 118.938 3.02424C119.557 2.23341 120.567 1.72267 122 1.49201V0.0256843H109.77Z" fill="#333333"/>
<path d="M62.1678 14.1454V14.0465C66.6463 12.7285 68.8774 10.2407 68.8774 6.55015C68.8774 4.17766 67.9654 2.3324 66.1251 1.03082C64.3012 -0.254274 61.7607 0.0258114 58.5036 0.0258114H43V1.49214C44.4168 1.7228 45.4265 2.23354 46.0454 3.02437C46.6642 3.8152 46.9736 5.03439 46.9736 6.69843V23.3223C46.9736 24.9863 46.6642 26.222 46.0454 26.9964C45.4265 27.7872 44.4168 28.2979 43 28.5286V29.9949H60.7673C63.7963 29.9949 66.2228 30.1597 68.0305 28.611C69.8545 27.0623 70.7502 25.0522 70.7502 22.548C70.7502 18.0501 67.9002 15.2493 62.1678 14.1454ZM53.0155 1.49214L54.986 1.47566C59.4319 1.47566 61.6467 3.00789 61.6467 7.24212C61.6467 9.26862 61.093 10.5702 60.0019 11.6905C58.9107 12.8274 57.3962 13.3875 55.4583 13.3875H53.0155V1.49214ZM61.891 26.7822C60.7998 27.9849 59.3179 28.578 57.4125 28.578C55.8328 28.578 54.7091 28.2815 54.0252 27.6883C53.3575 27.0952 53.0155 26.0902 53.0155 24.6733V15.7435H56.5982C58.7642 15.7435 60.4578 16.073 61.6792 17.3417C62.9006 18.5938 63.5032 20.2743 63.5032 22.3667C63.5195 24.4756 62.9658 25.5795 61.891 26.7822Z" fill="#333333"/>
<path d="M46.2254 40.5454C45.1873 40.5454 44.3717 40.1817 43.76 39.4736C43.2595 38.8803 43 38.1338 43 37.2917C43 36.3922 43.3151 35.6266 43.9083 35.0333C44.52 34.4209 45.28 34.1146 46.1883 34.1146C46.7444 34.1146 47.2449 34.2295 47.6898 34.4591C48.1346 34.6888 48.5054 35.0142 48.7834 35.4161L48.8205 35.4735L48.2459 35.9329L48.2088 35.8754C47.9678 35.5501 47.6712 35.3013 47.319 35.129C46.9854 34.9568 46.5961 34.8802 46.1883 34.8802C45.7434 34.8802 45.3171 34.995 44.9463 35.2056C44.5571 35.4352 44.2605 35.7223 44.0566 36.1051C43.8527 36.4879 43.7415 36.9089 43.7415 37.3683C43.7415 38.0764 43.9824 38.6697 44.4459 39.1482C44.9093 39.6267 45.521 39.8563 46.2254 39.8563C47.0039 39.8563 47.6712 39.531 48.2088 38.8994L48.2459 38.842L48.8205 39.2822L48.7834 39.3396C48.4868 39.7224 48.1161 40.0286 47.6712 40.2391C47.2634 40.4305 46.7629 40.5454 46.2254 40.5454Z" fill="#333333"/>
<path d="M51.842 40.5071C51.1747 40.5071 50.6 40.2583 50.1737 39.7799C49.7473 39.3014 49.5249 38.7464 49.5249 38.1148C49.5249 37.4832 49.7288 36.9282 50.1366 36.4688C50.5815 35.9521 51.1561 35.7033 51.842 35.7033C52.5278 35.7033 53.0839 35.9521 53.5473 36.4688C53.9551 36.9282 54.159 37.4832 54.159 38.1148C54.159 38.7464 53.9366 39.3205 53.5103 39.7799C53.0654 40.2583 52.5093 40.5071 51.842 40.5071ZM51.8234 36.4114C51.3786 36.4114 51.0078 36.5836 50.6927 36.909C50.3776 37.2344 50.2108 37.6554 50.2108 38.1339C50.2108 38.4401 50.2849 38.7272 50.4332 38.9952C50.5815 39.2631 50.7669 39.4736 51.0078 39.6076C51.2488 39.7416 51.5269 39.8181 51.8234 39.8181C52.12 39.8181 52.3795 39.7416 52.639 39.6076C52.88 39.4736 53.0839 39.2631 53.2137 38.9952C53.362 38.7272 53.4361 38.4401 53.4361 38.1339C53.4361 37.6554 53.2693 37.2535 52.9542 36.909C52.639 36.5645 52.2683 36.4114 51.8234 36.4114Z" fill="#333333"/>
<path d="M54.7893 40.3923V35.8181H55.4937V36.3157C55.6235 36.1435 55.7717 36.0095 55.92 35.9138C56.1239 35.7798 56.3278 35.7033 56.5503 35.7033C56.7171 35.7033 56.8839 35.7607 57.0693 35.8564L57.1435 35.8946L56.7913 36.488L56.7356 36.4688C56.6244 36.4305 56.5503 36.3923 56.4761 36.3923C56.3093 36.3923 56.1425 36.4688 55.9942 36.6028C55.8274 36.7559 55.7161 36.9856 55.6235 37.2918C55.5493 37.5406 55.5308 38.0382 55.5308 38.8038V40.3732H54.7893V40.3923Z" fill="#333333"/>
<path d="M57.7737 42V35.7989H58.4781V36.4688C58.6634 36.2391 58.8859 36.0478 59.1268 35.9329C59.4234 35.7798 59.7571 35.6841 60.1093 35.6841C60.7395 35.6841 61.2771 35.9138 61.722 36.3923C62.1668 36.8516 62.3893 37.4258 62.3893 38.0765C62.3893 38.7464 62.1668 39.3205 61.722 39.7799C61.2771 40.2392 60.7395 40.488 60.1093 40.488C59.7571 40.488 59.4234 40.4115 59.1268 40.2583C58.8859 40.1435 58.6634 39.9521 58.4595 39.7416V42H57.7737ZM60.0537 36.3923C59.5903 36.3923 59.2195 36.5645 58.9044 36.8899C58.5893 37.2152 58.441 37.6363 58.441 38.1148C58.441 38.4401 58.5151 38.7272 58.6449 38.976C58.7747 39.2248 58.9786 39.4354 59.2381 39.5885C59.4976 39.7416 59.7756 39.8181 60.0537 39.8181C60.3317 39.8181 60.6098 39.7416 60.8507 39.5885C61.0917 39.4354 61.2956 39.2248 61.4439 38.9569C61.5922 38.6889 61.6664 38.4019 61.6664 38.0956C61.6664 37.7894 61.5922 37.5023 61.4439 37.2344C61.2956 36.9664 61.0917 36.7559 60.8507 36.6028C60.6283 36.4688 60.3503 36.3923 60.0537 36.3923Z" fill="#333333"/>
<path d="M65.3552 40.5071C64.6878 40.5071 64.1132 40.2583 63.6869 39.7799C63.2605 39.3014 63.0381 38.7464 63.0381 38.1148C63.0381 37.4832 63.242 36.9282 63.6498 36.4688C64.0947 35.9521 64.6693 35.7033 65.3552 35.7033C66.041 35.7033 66.5971 35.9521 67.0605 36.4688C67.4683 36.9282 67.6722 37.4832 67.6722 38.1148C67.6722 38.7464 67.4498 39.3205 67.0235 39.7799C66.5971 40.2583 66.041 40.5071 65.3552 40.5071ZM65.3552 36.4114C64.9103 36.4114 64.5395 36.5836 64.2244 36.909C63.9093 37.2344 63.7425 37.6554 63.7425 38.1339C63.7425 38.4401 63.8166 38.7272 63.9649 38.9952C64.1132 39.2631 64.2986 39.4736 64.5396 39.6076C64.7805 39.7416 65.0586 39.8181 65.3552 39.8181C65.6517 39.8181 65.9113 39.7416 66.1708 39.6076C66.4117 39.4736 66.6156 39.2631 66.7454 38.9952C66.8937 38.7272 66.9678 38.4401 66.9678 38.1339C66.9678 37.6554 66.801 37.2535 66.4859 36.909C66.1708 36.5645 65.8 36.4114 65.3552 36.4114Z" fill="#333333"/>
<path d="M68.5063 40.3923V35.8181H69.2107V36.3157C69.3405 36.1435 69.4888 36.0095 69.6371 35.9138C69.841 35.7798 70.0449 35.7033 70.2673 35.7033C70.4342 35.7033 70.601 35.7607 70.7863 35.8564L70.8605 35.8946L70.5083 36.488L70.4527 36.4688C70.3415 36.4305 70.2673 36.3923 70.1932 36.3923C70.0263 36.3923 69.8595 36.4688 69.7112 36.6028C69.5444 36.7559 69.4332 36.9856 69.3405 37.2918C69.2663 37.5406 69.2478 38.0382 69.2478 38.8038V40.3732H68.5063V40.3923Z" fill="#333333"/>
<path d="M73.196 40.5071C72.5658 40.5071 72.0282 40.2775 71.5833 39.799C71.1385 39.3397 70.916 38.7655 70.916 38.0956C70.916 37.4449 71.1385 36.8707 71.5833 36.4114C72.0282 35.9521 72.5658 35.7033 73.196 35.7033C73.5667 35.7033 73.9004 35.7798 74.1785 35.9521C74.4194 36.086 74.6233 36.2583 74.8272 36.488V35.8181H75.5131V40.3923H74.8272V39.7607C74.6233 39.9904 74.4009 40.1626 74.1599 40.2775C73.8819 40.4306 73.5482 40.5071 73.196 40.5071ZM73.2702 36.3923C72.9736 36.3923 72.6955 36.4688 72.4546 36.6219C72.2136 36.775 72.0097 36.9856 71.8614 37.2535C71.7131 37.5215 71.6389 37.8085 71.6389 38.1148C71.6389 38.421 71.7131 38.7081 71.8614 38.976C72.0097 39.244 72.2136 39.4545 72.4546 39.6076C72.6955 39.7607 72.9736 39.8373 73.2516 39.8373C73.5482 39.8373 73.8077 39.7607 74.0672 39.6076C74.3267 39.4545 74.5306 39.244 74.6604 38.9952C74.7902 38.7464 74.8643 38.4401 74.8643 38.1339C74.8643 37.6363 74.6975 37.2344 74.4009 36.909C74.1043 36.5645 73.715 36.3923 73.2702 36.3923Z" fill="#333333"/>
<path d="M77.2742 40.3924V36.4498H76.5327V35.799H77.2742V34.1722H77.9786V35.799H78.8498V36.4498H77.9786V40.3924H77.2742Z" fill="#333333"/>
<path d="M79.6097 40.3924V35.8182H80.3141V40.3924H79.6097ZM79.9619 35.0718C79.8136 35.0718 79.7024 35.0144 79.5912 34.9187C79.48 34.8038 79.4429 34.689 79.4429 34.5359C79.4429 34.3828 79.4985 34.2488 79.5912 34.1531C79.7024 34.0383 79.8136 34 79.9619 34C80.1102 34 80.24 34.0574 80.3326 34.1531C80.4439 34.2679 80.4809 34.3828 80.4809 34.5359C80.4809 34.689 80.4253 34.8038 80.3326 34.9187C80.24 35.0144 80.1102 35.0718 79.9619 35.0718Z" fill="#333333"/>
<path d="M83.3913 40.5071C82.724 40.5071 82.1493 40.2583 81.723 39.7799C81.2967 39.3014 81.0742 38.7464 81.0742 38.1148C81.0742 37.4832 81.2781 36.9282 81.6859 36.4688C82.1308 35.9521 82.7054 35.7033 83.3913 35.7033C84.0771 35.7033 84.6332 35.9521 85.0966 36.4688C85.5045 36.9282 85.7084 37.4832 85.7084 38.1148C85.7084 38.7464 85.4859 39.3205 85.0596 39.7799C84.6332 40.2583 84.0771 40.5071 83.3913 40.5071ZM83.3913 36.4114C82.9464 36.4114 82.5757 36.5836 82.2606 36.909C81.9454 37.2344 81.7786 37.6554 81.7786 38.1339C81.7786 38.4401 81.8528 38.7272 82.001 38.9952C82.1493 39.2631 82.3347 39.4736 82.5757 39.6076C82.8167 39.7416 83.0947 39.8181 83.3913 39.8181C83.6879 39.8181 83.9474 39.7416 84.2069 39.6076C84.4479 39.4736 84.6518 39.2631 84.7815 38.9952C84.9298 38.7272 85.004 38.4401 85.004 38.1339C85.004 37.6554 84.8371 37.2535 84.522 36.909C84.2069 36.5645 83.8362 36.4114 83.3913 36.4114Z" fill="#333333"/>
<path d="M89.9346 40.3923V38.2105C89.9346 37.7129 89.9161 37.3684 89.879 37.2153C89.8234 36.9473 89.7122 36.7368 89.5454 36.6028C89.3785 36.4688 89.1561 36.3923 88.878 36.3923C88.5629 36.3923 88.2849 36.5071 88.0254 36.7176C87.7659 36.9282 87.599 37.2153 87.5249 37.5215C87.4693 37.732 87.4507 38.1339 87.4507 38.7081V40.4115H86.7463V35.8372H87.4507V36.488C87.6361 36.2583 87.8585 36.0861 88.081 35.9521C88.359 35.799 88.6556 35.7224 88.9893 35.7224C89.3229 35.7224 89.6195 35.8181 89.879 35.9904C90.1385 36.1626 90.3239 36.4114 90.4537 36.6985C90.5834 36.9856 90.639 37.4449 90.639 38.0574V40.4115H89.9346V40.3923Z" fill="#333333"/>
<path d="M97.0527 40.5455C95.959 40.5455 95.0878 40.1627 94.4575 39.378C93.9756 38.7847 93.7161 38.0957 93.7161 37.311C93.7161 36.7368 93.8644 36.1818 94.1424 35.6842C94.4205 35.1865 94.8097 34.7846 95.3102 34.5167C95.7922 34.2296 96.3668 34.0956 96.9785 34.0956C97.479 34.0956 97.9609 34.1913 98.3873 34.3827C98.8322 34.5741 99.2585 34.8612 99.6848 35.2822L99.7405 35.3396L99.1844 35.8755L99.1288 35.8181C98.8136 35.4928 98.4614 35.244 98.0907 35.0908C97.72 34.9186 97.3492 34.842 96.997 34.842C96.5522 34.842 96.1258 34.9569 95.7366 35.1865C95.3473 35.4162 95.0322 35.7224 94.8097 36.1052C94.5873 36.488 94.4761 36.8899 94.4761 37.311C94.4761 37.7512 94.5873 38.1722 94.8097 38.555C95.0322 38.9378 95.3473 39.2631 95.7551 39.4928C96.1629 39.7225 96.6078 39.8373 97.0712 39.8373C97.6458 39.8373 98.1463 39.6651 98.5356 39.3397C98.9063 39.0335 99.1473 38.6124 99.2214 38.1148H97.3863V37.3875H100.037V37.4641C100.037 38.4019 99.759 39.1675 99.2214 39.7225C98.6839 40.2584 97.9609 40.5455 97.0527 40.5455Z" fill="#333333"/>
<path d="M101.057 40.3923V35.8181H101.761V36.3157C101.891 36.1435 102.039 36.0095 102.187 35.9138C102.391 35.7798 102.595 35.7033 102.818 35.7033C102.984 35.7033 103.151 35.7607 103.337 35.8564L103.411 35.8946L103.059 36.488L103.003 36.4688C102.892 36.4305 102.818 36.3923 102.743 36.3923C102.577 36.3923 102.41 36.4688 102.262 36.6028C102.095 36.7559 101.983 36.9856 101.891 37.2918C101.817 37.5406 101.798 38.0382 101.798 38.8038V40.3732H101.057V40.3923Z" fill="#333333"/>
<path d="M105.95 40.5071C105.283 40.5071 104.708 40.2583 104.282 39.7799C103.855 39.3014 103.633 38.7464 103.633 38.1148C103.633 37.4832 103.837 36.9282 104.245 36.4688C104.69 35.9521 105.264 35.7033 105.95 35.7033C106.636 35.7033 107.192 35.9521 107.655 36.4688C108.063 36.9282 108.267 37.4832 108.267 38.1148C108.267 38.7464 108.045 39.3205 107.618 39.7799C107.192 40.2583 106.617 40.5071 105.95 40.5071ZM105.95 36.4114C105.505 36.4114 105.135 36.5836 104.819 36.909C104.504 37.2344 104.337 37.6554 104.337 38.1339C104.337 38.4401 104.412 38.7272 104.56 38.9952C104.708 39.2631 104.894 39.4736 105.135 39.6076C105.376 39.7416 105.654 39.8181 105.95 39.8181C106.247 39.8181 106.506 39.7416 106.766 39.6076C107.007 39.4736 107.211 39.2631 107.34 38.9952C107.489 38.7272 107.563 38.4401 107.563 38.1339C107.563 37.6554 107.396 37.2535 107.081 36.909C106.766 36.5645 106.376 36.4114 105.95 36.4114Z" fill="#333333"/>
<path d="M111.178 40.5071C110.751 40.5071 110.38 40.4114 110.084 40.2391C109.787 40.0477 109.565 39.7989 109.435 39.4736C109.287 39.1482 109.213 38.6697 109.213 38.019V35.818H109.917V37.9616C109.917 38.4592 109.936 38.8037 109.991 38.976C110.065 39.2248 110.214 39.4353 110.418 39.5693C110.621 39.7224 110.881 39.7989 111.178 39.7989C111.474 39.7989 111.715 39.7224 111.919 39.5884C112.123 39.4544 112.253 39.263 112.327 39.0142C112.382 38.8611 112.401 38.4975 112.401 37.9425V35.7989H113.105V38.0573C113.105 38.6697 113.031 39.1482 112.883 39.4736C112.735 39.7989 112.512 40.0477 112.234 40.2391C111.975 40.4114 111.604 40.5071 111.178 40.5071Z" fill="#333333"/>
<path d="M114.384 42V35.7989H115.089V36.4688C115.274 36.2391 115.496 36.0478 115.737 35.9329C116.034 35.7798 116.368 35.6841 116.72 35.6841C117.35 35.6841 117.888 35.9138 118.333 36.3923C118.777 36.8516 119 37.4258 119 38.0765C119 38.7464 118.777 39.3205 118.333 39.7799C117.888 40.2392 117.35 40.488 116.72 40.488C116.368 40.488 116.034 40.4115 115.737 40.2583C115.496 40.1435 115.274 39.9521 115.07 39.7416V42H114.384ZM116.664 36.3923C116.201 36.3923 115.83 36.5645 115.515 36.8899C115.2 37.2152 115.052 37.6363 115.052 38.1148C115.052 38.4401 115.126 38.7272 115.255 38.976C115.385 39.2248 115.589 39.4354 115.849 39.5885C116.108 39.7416 116.386 39.8181 116.664 39.8181C116.942 39.8181 117.22 39.7416 117.461 39.5885C117.702 39.4354 117.906 39.2248 118.055 38.9569C118.203 38.6889 118.277 38.4019 118.277 38.0956C118.277 37.7894 118.203 37.5023 118.055 37.2344C117.906 36.9664 117.702 36.7559 117.461 36.6028C117.22 36.4688 116.961 36.3923 116.664 36.3923Z" fill="#333333"/>
</svg>
